<?xml version="1.0" encoding="UTF-8"?>
<svg width="67.978mm" height="43.177mm" version="1.1" viewBox="0 0 240.86773 152.98835" xmlns="http://www.w3.org/2000/svg">
 <g transform="translate(-20.455 -94.65)">
  <path d="m140.73 94.652c-18.957 0.04321-37.861 0.77849-56.217 2.0781-18.204 15.172-21.91 23.812-28.777 36.127-3.1571 0.15507-0.27278-6.9553-2.5098-7.5293-6.7708-1.7663-13.091 0.55654-14.938 2.0938-1.281 0.9275-1.276 2.3669-1.3457 3.6094-0.22118 3.943 2.8838 6.9125 10.654 6.5644 1.1405-2.9872 3.4023-3.3897 5.7734-3.5371-2.0627 0.65458-4.6089 0.8879-4.4746 3.4648 2.7727-0.217 3.9466 0.3237 5.123 0.57617-2.2872 2.7794-5.6998 6.2048-7.8281 9.8144-0.12829-1.9082 2.6734-5.117 4.293-6.9277-12.766 7.1998-19.895 16.41-26.121 22.947-2.418 7.7932-4.0661 15.586-3.8965 23.379 1.4831 1.9806 3.2093 3.3208 6.3496 4.041-2.5643-0.23544-4.9278-0.45627-6.3496-2.4531l1.5879 31.605c2.1736 0.35469 4.9008 1.4999 6.3125 3.3926-1.3287-0.30084-4.441-2.7215-6.1699-2.3828-0.80621 6.0248-0.07361 11.327 0.72266 16.598 0.27715 4.9311 5.1142 9.4166 7.793 9.5254l31.027-0.43359c2.2384 0.10086 2.2837-2.4225 2.1992-3.3535-4.4366 0.46617-7.5521-0.43958-9.8047-1.1816 12.826 0.82161 27.859 0.33203 41.521 0.33203 17.153-3.889 30.094-1.5193 45.232-2.2559 15.138 0.73636 28.078-1.633 45.23 2.2559 13.662 0 28.697 0.48958 41.523-0.33203-2.2526 0.74206-5.3701 1.6478-9.8066 1.1816-0.0845 0.931-0.0392 3.4544 2.1992 3.3535l31.029 0.43359c2.6787-0.1088 7.5158-4.5943 7.793-9.5254 0.79627-5.2707 1.5269-10.573 0.7207-16.598-1.7289-0.33878-4.8393 2.082-6.168 2.3828 1.4117-1.8927 4.1389-3.0379 6.3125-3.3926l1.5879-31.605c-1.4218 1.9969-3.7853 2.2177-6.3496 2.4531 3.1403-0.72021 4.8666-2.0605 6.3496-4.041 0.16963-7.7932-1.4784-15.586-3.8965-23.379-6.2265-6.5368-13.357-15.748-26.123-22.947 1.6195 1.8108 4.4232 5.0195 4.2949 6.9277-2.1284-3.6096-5.5428-7.035-7.8301-9.8144 1.1765-0.25247 2.3504-0.79317 5.123-0.57617 0.1343-2.577-2.41-2.8103-4.4727-3.4648 2.3711 0.14743 4.631 0.54995 5.7715 3.5371 7.7705 0.34808 10.875-2.6215 10.654-6.5644-0.0697-1.2425-0.0647-2.6818-1.3457-3.6094-1.846-1.5372-8.1667-3.86-14.938-2.0938-2.237 0.57399 0.64926 7.6844-2.5078 7.5293-6.8672-12.315-10.574-20.955-28.777-36.127-18.567-1.4725-37.576-2.1213-56.533-2.0781zm-53.359 2.3848c-1.5356 0.67789-3.4487 2.036-3.5723 3.4199 36.277-3.5885 77.664-4.4635 114.18 0-0.12358-1.3839-2.0367-2.742-3.5723-3.4199 7.3892 1.3766 23.25 27.67 27.449 35.615-55.515-3.5287-111.97-3.2453-161.94 0 4.1996-7.9451 20.062-34.239 27.451-35.615zm-21.615 51.439c1.5879 3.3536 4.2828 9.6273 6.7559 15.314 5.6522 0.088 9.8848 0.58077 14.412 0.99023l-0.26758 1.082c-4.7417-0.45174-9.1454-1.0735-14.504-1.2168-2.1319-5.377-4.2645-10.642-6.3965-16.17zm150.26 0c-2.1319 5.5279-4.2626 10.793-6.3945 16.17-5.3586 0.14331-9.7622 0.76506-14.504 1.2168l-0.26953-1.082c4.5273-0.40946 8.7599-0.90223 14.412-0.99023 2.473-5.6872 5.168-11.961 6.7559-15.314zm-173.51 11.062c1.1755 0.023 2.3834 0.16488 3.6348 0.46289 5.898 1.884 10.118 4.0712 24.084 4.4883l10.205 20.207c7.9591 14.763 8.9277 31.524 23.879 44.289 11.451 2.7653 23.423 2.1496 35.225 2.6367 0.23837 0 0.47435-6e-3 0.71289-6e-3l-0.22071 0.0215c-0.16413-7e-3 -0.32797-9e-3 -0.49218-0.0156-12.119 1.5e-4 -24.016 1.1195-36.664-1.5215-15.93-16.214-15.641-29.725-23.461-44.588-49.476-1.7915-50.248-6.4982-51.227-7.7559-0.97834-1.2576-1.8546-2.7207 0.07227-14.814 4.6835-1.3696 9.1583-3.5042 14.252-3.4043zm196.76 0c5.0936-0.0999 9.5685 2.0347 14.252 3.4043 1.9268 12.094 1.0506 13.557 0.0723 14.814-0.97833 1.2576-1.753 5.9644-51.229 7.7559-7.8204 14.863-7.5308 28.373-23.461 44.588-12.648 2.641-24.543 1.5216-36.662 1.5215-0.16421 7e-3 -0.33001 9e-3 -0.49414 0.0156l-0.21875-0.0215c0.23788 6e-5 0.47516 6e-3 0.71289 6e-3 11.802-0.48715 23.774 0.12857 35.225-2.6367 14.951-12.765 15.918-29.526 23.877-44.289l10.207-20.207c13.966-0.41703 18.184-2.6043 24.082-4.4883 1.2514-0.29801 2.4612-0.43989 3.6367-0.46289zm-130.55 0.84961c9.2722 0.0956 19.572 1.1565 26.113 1.9082 1.4088 0.16191 1.4398 2.5288 2.8301 2.5371 0.60332 4e-3 0.53128 1.1166 0.62695 1.5977 0.13611 3.7078 3.0531 23.496-4.3887 24.695-7.4956 0.24383-19.854 0.60441-27.758-0.10351-22.186-1.7195-18.85-24.281-17.365-26.754 2.4266-3.108 10.669-3.9764 19.941-3.8809zm64.33 0c9.2723-0.0956 17.517 0.7729 19.943 3.8809 1.4844 2.4732 4.8191 25.034-17.367 26.754-7.9036 0.70792-20.262 0.34734-27.758 0.10351-7.4418-1.1993-4.5228-20.988-4.3867-24.695 0.0957-0.4811 0.0236-1.5937 0.62695-1.5977 1.3903-8e-3 1.4193-2.3752 2.8281-2.5371 6.5409-0.75173 16.841-1.8126 26.113-1.9082zm-137.72 3.9238a9.5378 9.8488 0 0 0 -2.291 6.3984 9.5378 9.8488 0 0 0 9.5371 9.8496 9.5378 9.8488 0 0 0 8.9043 -6.3516 9.5378 9.8488 0 0 1 -7.2461 3.4492 9.5378 9.8488 0 0 1 -9.5371 -9.8496 9.5378 9.8488 0 0 1 0.63281 -3.4961zm211.11 0a9.5378 9.8488 0 0 1 0.63281 3.4961 9.5378 9.8488 0 0 1 -9.5371 9.8496 9.5378 9.8488 0 0 1 -7.2461 -3.4492 9.5378 9.8488 0 0 0 8.9043 6.3516 9.5378 9.8488 0 0 0 9.5371 -9.8496 9.5378 9.8488 0 0 0 -2.291 -6.3984zm-156.15 1.4316c-0.68724 2.5431 0.41184 11.161 2.9004 13.916 0.13668 0.11991 0.28323 0.23363 0.42578 0.34961l-0.84375-14.129c-0.82952-0.0467-1.6512-0.0893-2.4824-0.13672zm101.2 0c-0.83119 0.0474-1.6548 0.09-2.4844 0.13672l-0.8418 14.129c0.14255-0.11598 0.2891-0.2297 0.42578-0.34961 2.4886-2.7555 3.5876-11.373 2.9004-13.916zm-97.895 0.18359 0.88281 14.738c0.85437 0.60349 1.7973 1.146 2.8105 1.6367l-0.96094-16.227c-0.90985-0.0495-1.8189-0.0973-2.7324-0.14844zm94.584 0c-0.91349 0.0511-1.8206 0.0989-2.7305 0.14844l-0.96289 16.227c1.0132-0.49073 1.9562-1.0332 2.8106-1.6367l0.88281-14.738zm-91.023 0.19336 0.98242 16.576c0.87353 0.38263 1.7951 0.72864 2.7578 1.041l-0.95507-17.465c-0.92059-0.0475-1.8591-0.10251-2.7852-0.15235zm87.463 0c-0.92608 0.0498-1.8646 0.10485-2.7852 0.15235l-0.95312 17.465c0.96271-0.31237 1.8823-0.65838 2.7559-1.041l0.98242-16.576zm-83.854 0.19336 0.9668 17.684c0.88716 0.2639 1.8138 0.49297 2.7598 0.70507l-0.9375-18.252c-0.92656-0.0441-1.855-0.0894-2.7891-0.13672zm80.246 0c-0.93409 0.0473-1.8645 0.0926-2.791 0.13672l-0.9375 18.252c0.94594-0.2121 1.8746-0.44117 2.7617-0.70507l0.9668-17.684zm-76.637 0.17774 0.94531 18.396c0.91611 0.18839 1.8604 0.35047 2.8184 0.4961l-0.96484-18.771c-0.93061-0.0394-1.8586-0.0774-2.7988-0.12109zm73.027 0c-0.94025 0.0437-1.8682 0.0817-2.7988 0.12109l-0.96485 18.771c0.95801-0.14563 1.9003-0.30771 2.8164-0.4961l0.94726-18.396zm-41.172 0.0644c-0.7813 0.063-1.5885 0.11724-2.4024 0.16602l0.96094 18.637c2.9397-2.0524 2.802-15.866 1.4414-18.803zm9.3144 0c-1.3605 2.9367-1.4963 16.75 1.4434 18.803l0.95899-18.637c-0.81385-0.0488-1.621-0.10302-2.4024-0.16602zm-37.521 0.0918 0.96875 18.861c0.93669 0.12918 1.89 0.23694 2.8555 0.33007l-0.98047-19.082c-0.94346-0.0338-1.8879-0.0701-2.8438-0.10937zm65.73 0c-0.95584 0.0392-1.9022 0.0756-2.8457 0.10937l-0.98047 19.082c0.96543-0.0931 1.9207-0.20089 2.8574-0.33007l0.96875-18.861zm-40.768 0.1289c-0.9223 0.0492-1.8745 0.0842-2.834 0.11719l0.97657 18.963c0.95662-0.0679 1.899-0.14437 2.8262-0.22851l-0.96875-18.852zm15.805 0-0.97071 18.852c0.92712 0.0841 1.8715 0.16061 2.8281 0.22851l0.97656-18.963c-0.9595-0.033-1.9117-0.068-2.834-0.11719zm-37.076 0.01 0.98438 19.129c0.94013 0.0804 1.892 0.14313 2.8496 0.19336l-0.99024-19.235c-0.94024-0.026-1.8885-0.0553-2.8438-0.0879zm58.346 0c-0.95525 0.0326-1.9035 0.0619-2.8438 0.0879l-0.98828 19.234c0.95762-0.0502 1.9075-0.11296 2.8476-0.19336l0.98438-19.129zm-54.652 0.10937 0.98828 19.246c0.94333 0.041 1.8925 0.0645 2.8438 0.0801l-0.99023-19.262c-0.93664-0.0165-1.8872-0.0401-2.8418-0.0645zm50.961 0c-0.95464 0.0244-1.9071 0.048-2.8438 0.0645l-0.99023 19.262c0.95125-0.0156 1.9004-0.0391 2.8438-0.0801l0.99023-19.246zm-37.062 0.0293c-0.9264 0.027-1.8789 0.043-2.8359 0.0566l0.98047 19.094c0.95375-0.0452 1.8957-0.10277 2.832-0.16406l-0.97656-18.986zm23.162 0-0.97656 18.986c0.93631 0.0613 1.8783 0.11886 2.832 0.16406l0.98047-19.094c-0.95707-0.0136-1.9095-0.0296-2.8359-0.0566zm-33.371 0.0449 0.99023 19.262c0.94623 8e-3 1.8942-3e-3 2.8398-0.0176l-0.98828-19.209c-0.93277-5e-3 -1.8875-0.021-2.8418-0.0352zm43.582 0c-0.95426 0.0142-1.909 0.0302-2.8418 0.0352l-0.98828 19.209c0.94561 0.0143 1.8917 0.0256 2.8379 0.0176l0.99219-19.262zm-37.055 0.0274c-0.92901 9e-3 -1.8853 6e-3 -2.8398 4e-3l0.98632 19.205c0.94932-0.0197 1.8956-0.049 2.8359-0.0879l-0.98242-19.121zm30.525 0-0.98242 19.121c0.9403 0.0389 1.8866 0.0682 2.8359 0.0879l0.98632-19.205c-0.95458 2e-3 -1.9108 5e-3 -2.8398-4e-3zm-94.035 7.3418a5.2134 5.3834 0 0 0 -1.2539 3.498 5.2134 5.3834 0 0 0 5.2148 5.3828 5.2134 5.3834 0 0 0 4.8672 -3.4707 5.2134 5.3834 0 0 1 -3.9609 1.8848 5.2134 5.3834 0 0 1 -5.2129 -5.3828 5.2134 5.3834 0 0 1 0.3457 -1.9121zm157.55 0a5.2134 5.3834 0 0 1 0.3457 1.9121 5.2134 5.3834 0 0 1 -5.2129 5.3828 5.2134 5.3834 0 0 1 -3.9609 -1.8848 5.2134 5.3834 0 0 0 4.8672 3.4707 5.2134 5.3834 0 0 0 5.2148 -5.3828 5.2134 5.3834 0 0 0 -1.2539 -3.498zm-169.65 38.834c7.894-0.034 18.838 0.59327 34.098 1.7305l-0.51172 0.71289c-3.2067 0.1283-27.824-3.1569-42.816-0.66797 2.2131 0.8915 3.3691 3.0233 3.3691 5.5156 0 3.2938-3.0897 5.965-6.9004 5.9648-1.2044-1e-3 -2.3859-0.27743-3.4297-0.79688 0.81532 0.36102 1.7033 0.55068 2.6035 0.55274 3.4132-1.6e-4 6.1796-2.6171 6.1797-5.8457-1e-3 -2.2093-1.3067-4.1432-3.2441-5.1348-4.7927 0.95953-8.4047 2.5926-9.6602 5.2539-0.14123 0.37852-0.2744 0.76822-0.39062 1.1797 0.0805-0.41411 0.21468-0.80672 0.39062-1.1797 1.8928-5.0738 6.2885-7.2246 20.312-7.2852zm181.76 0c14.024 0.0605 18.422 2.2114 20.314 7.2852 0.17595 0.37297 0.30817 0.76558 0.38867 1.1797-0.11622-0.41147-0.24744-0.80117-0.38867-1.1797-1.2554-2.6613-4.8675-4.2944-9.6602-5.2539-1.9375 0.99157-3.2451 2.9254-3.2461 5.1348 7e-5 3.2286 2.7665 5.8456 6.1797 5.8457 0.90024-2e-3 1.7882-0.19172 2.6035-0.55274-1.0437 0.51945-2.2253 0.79588-3.4297 0.79688-3.8107 1.3e-4 -6.9004-2.6711-6.9004-5.9648 0-2.4923 1.158-4.6241 3.3711-5.5156-14.992-2.4889-39.612 0.79627-42.818 0.66797l-0.50976-0.71289c15.26-1.1372 26.202-1.7645 34.096-1.7305zm-133.12 3.0957c27.237 2.3216 56.159 2.7784 83.311 0-1.758 3.3069-4.2295 8.0286-7.9316 9.8047-7.736 3.0861-59.119 3.1725-67.449 0-3.7022-1.7761-6.1717-6.4978-7.9297-9.8047zm-53.098 3.3867 42.027 1.7148 1.082 1.3711c-12.526-1.6877-27.993-2.3235-43.109-3.0859zm190.68 0c-15.116 0.76244-30.586 1.3983-43.111 3.0859l1.084-1.3711 42.027-1.7148zm-149.09 13.189c17.844 1.3129 35.727 1.9227 53.746 1.5449 18.019 0.3778 35.903-0.23197 53.748-1.5449l-0.14454 0.79297c-17.644 1.0413-35.288 1.7936-52.932 1.4844v-0.0176c-0.22333 5e-3 -0.44658 4e-3 -0.66992 8e-3 -0.22392-4e-3 -0.44795-3e-3 -0.67187-8e-3v0.0176c-17.644 0.30917-35.288-0.44307-52.932-1.4844l-0.14453-0.79297zm-54.047 3.6074c18.283 1.0976 44.718 5.1461 55.201 1.3711-4.9513 5.5327-41.833 0.10559-55.201-1.3711zm215.59 0c-13.368 1.4767-50.25 6.9038-55.201 1.3711 10.483 3.775 36.918-0.2735 55.201-1.3711z" fill="#333" fill-rule="evenodd"/>
 </g>
</svg>
