<?xml version='1.0' encoding='utf-8'?>
<svg xmlns="http://www.w3.org/2000/svg" xmlns:xlink="http://www.w3.org/1999/xlink" width="541.87mm" height="493.08mm" version="1.1" viewBox="0 0 1919.9999 1747.1375">
 <defs>
  <linearGradient id="a">
   <stop stop-color="#895635" offset="0"/>
   <stop stop-color="#c48b66" offset="1"/>
  </linearGradient>
  <linearGradient id="f" x1="-193" x2="-307" y1="470.36" y2="518.36" gradientTransform="matrix(5.3291 0 0 5.3291 1648.2 -1381.1)" gradientUnits="userSpaceOnUse">
   <stop stop-color="#ac6c42" offset="0"/>
   <stop stop-color="#623d26" offset="1"/>
  </linearGradient>
  <linearGradient id="g" x1="-185" x2="47" y1="581.72" y2="333.72" gradientTransform="matrix(5.3291 0 0 5.3291 1648.2 -1381.1)" gradientUnits="userSpaceOnUse">
   <stop stop-color="#ce9d7d" offset="0"/>
   <stop stop-color="#a4663e" offset="1"/>
  </linearGradient>
  <linearGradient id="h" x1="-336.97" x2="14.03" y1="20.601" y2="-59.399" gradientTransform="matrix(5.3291 0 0 5.3291 1738.7 668.86)" gradientUnits="userSpaceOnUse" xlink:href="#a"/>
  <linearGradient id="i" x1="-277.97" x2="-110.97" y1="-3.7725" y2="-93.772" gradientTransform="matrix(5.3291 0 0 5.3291 1738.7 668.86)" gradientUnits="userSpaceOnUse" xlink:href="#a"/>
 </defs>
 <flowRoot transform="translate(1187.3 2608.3)" fill="#000000" font-family="sans-serif" font-size="13.75px" letter-spacing="0px" stroke-width="1px" word-spacing="0px" style="line-height:125%"><flowRegion><rect x="43.134" y="237.42" width="140.01" height="62.933"/></flowRegion><flowPara/></flowRoot>
 <path d="m1.5185 738.43 639.49 369.21v639.49l-639.49-369.21z" fill="url(#f)"/>
 <path d="m1920 369.22-639.49 369.21-639.49 369.22v639.49l639.49-369.22 639.49-369.21v-639.49z" fill="url(#g)"/>
 <path d="m1280.5-3.0228e-5 -1279 738.43 639.49 369.22 1279-738.43-639.49-369.22z" fill="#9d633d" fill-rule="evenodd"/>
 <path d="m1280.5-3.0228e-5v738.44l639.49-369.22-639.49-369.22z" fill="#704932" fill-rule="evenodd"/>
 <path d="m1280.5 639.49-725.18 418.68 85.682 49.471 639.49-369.22 85.682-49.461-85.682-49.471z" fill="#be8560" fill-rule="evenodd"/>
 <path d="m1280.5 2.6954e-4 -54.759 671.11l54.759-31.621v-639.49z" fill-rule="evenodd" opacity=".2"/>
 <path d="m1.5185 738.43 303.76 175.38 1279-738.43-303.76-175.38z" fill="url(#i)" fill-rule="evenodd"/>
 <path d="m337.25 932.27 303.76 175.38 1279-738.43l-303.76-175.38z" fill="url(#h)" fill-rule="evenodd"/>
 <path d="m1502.3 128.04-1279 738.43v438.29l24.494-27.308 24.492 55.591 24.494-27.308 24.494 55.591 24.492-27.308 24.494 55.591 24.492-27.308 24.494 55.591v-438.29l1293.4-730.08z" fill="#d4b09b"/>
 <path d="m1600.3 184.61-1279 738.42c8.0674 4.6578 8.0749 4.6735 16.133 9.326l1279-738.43-16.143-9.3155z" color="#000000" color-rendering="auto" fill="#e9c6af" fill-rule="evenodd" image-rendering="auto" opacity=".293" shape-rendering="auto" solid-color="#000000" style="block-progression:tb;isolation:auto;mix-blend-mode:normal;text-decoration-color:#000000;text-decoration-line:none;text-decoration-style:solid;text-indent:0;text-transform:none;white-space:normal"/>
 <rect transform="matrix(.86603 -.5 0 1 0 0)" x="827.33" y="1912.9" width="3.9758" height="117.07" fill="#643e27"/>
 <rect transform="matrix(.86603 -.5 0 1 0 0)" x="835.29" y="1912.9" width="3.9758" height="117.07" fill="#643e27"/>
 <rect transform="matrix(.86603 -.5 0 1 0 0)" x="847.21" y="1912.9" width="7.9516" height="103.29" fill="#643e27"/>
 <rect transform="matrix(.86603 -.5 0 1 0 0)" x="863.12" y="1912.9" width="3.9758" height="103.29" fill="#643e27"/>
 <rect transform="matrix(.86603 -.5 0 1 0 0)" x="875.04" y="1912.9" width="7.9516" height="103.29" fill="#643e27"/>
 <rect transform="matrix(.86603 -.5 0 1 0 0)" x="886.97" y="1912.9" width="7.9516" height="103.29" fill="#643e27"/>
 <rect transform="matrix(.86603 -.5 0 1 0 0)" x="902.87" y="1912.9" width="7.9516" height="103.29" fill="#643e27"/>
 <rect transform="matrix(.86603 -.5 0 1 0 0)" x="918.78" y="1912.9" width="3.9758" height="103.29" fill="#643e27"/>
 <rect transform="matrix(.86603 -.5 0 1 0 0)" x="934.68" y="1912.9" width="3.9758" height="103.29" fill="#643e27"/>
 <rect transform="matrix(.86603 -.5 0 1 0 0)" x="942.63" y="1912.9" width="7.9516" height="103.29" fill="#643e27"/>
 <rect transform="matrix(.86603 -.5 0 1 0 0)" x="966.49" y="1912.9" width="3.9758" height="103.29" fill="#643e27"/>
 <rect transform="matrix(.86603 -.5 0 1 0 0)" x="974.44" y="1912.9" width="3.9758" height="103.29" fill="#643e27"/>
 <rect transform="matrix(.86603 -.5 0 1 0 0)" x="982.39" y="1912.9" width="3.9758" height="103.29" fill="#643e27"/>
 <rect transform="matrix(.86603 -.5 0 1 0 0)" x="994.32" y="1912.9" width="11.927" height="103.29" fill="#643e27"/>
 <rect transform="matrix(.86603 -.5 0 1 0 0)" x="1010.2" y="1912.9" width="3.9758" height="117.07" fill="#643e27"/>
 <rect transform="matrix(.86603 -.5 0 1 0 0)" x="1018.2" y="1912.9" width="3.9758" height="117.07" fill="#643e27"/>
 <rect transform="matrix(.86603 -.5 0 1 0 0)" x="1026.1" y="1912.9" width="7.9516" height="103.29" fill="#643e27"/>
 <rect transform="matrix(.86603 -.5 0 1 0 0)" x="1038.1" y="1912.9" width="7.9516" height="103.29" fill="#643e27"/>
 <rect transform="matrix(.86603 -.5 0 1 0 0)" x="1054" y="1912.9" width="7.9516" height="103.29" fill="#643e27"/>
 <rect transform="matrix(.86603 -.5 0 1 0 0)" x="1065.9" y="1912.9" width="7.9516" height="103.29" fill="#643e27"/>
 <rect transform="matrix(.86603 -.5 0 1 0 0)" x="1081.8" y="1912.9" width="7.9516" height="103.29" fill="#643e27"/>
 <rect transform="matrix(.86603 -.5 0 1 0 0)" x="1097.7" y="1912.9" width="7.9516" height="103.29" fill="#643e27"/>
 <rect transform="matrix(.86603 -.5 0 1 0 0)" x="1109.6" y="1912.9" width="11.927" height="103.29" fill="#643e27"/>
 <rect transform="matrix(.86603 -.5 0 1 0 0)" x="1129.5" y="1912.9" width="3.9758" height="103.29" fill="#643e27"/>
 <rect transform="matrix(.86603 -.5 0 1 0 0)" x="1137.4" y="1912.9" width="3.9758" height="103.29" fill="#643e27"/>
 <rect transform="matrix(.86603 -.5 0 1 0 0)" x="1149.4" y="1912.9" width="11.927" height="103.29" fill="#643e27"/>
 <rect transform="matrix(.86603 -.5 0 1 0 0)" x="1165.3" y="1912.9" width="3.9758" height="103.29" fill="#643e27"/>
 <rect transform="matrix(.86603 -.5 0 1 0 0)" x="1177.2" y="1912.9" width="11.927" height="103.29" fill="#643e27"/>
 <rect transform="matrix(.86603 -.5 0 1 0 0)" x="1193.1" y="1912.9" width="3.9758" height="117.07" fill="#643e27"/>
 <rect transform="matrix(.86603 -.5 0 1 0 0)" x="1201.1" y="1912.9" width="3.9758" height="117.07" fill="#643e27"/>
 <text transform="matrix(1 -.57735 0 1 0 0)" x="878.31952" y="2047.1997" fill="#643e27" font-size="30.988px" text-align="center" text-anchor="middle">4    121960     221055       </text>
 <path transform="translate(-6.1035e-5)" d="m1856.2 761.12l-52.65 30.398v156.68l52.65-30.398v-23.66l-29.629 17.107v-43.061l21.316-12.307v-25.154l-21.316 12.309v-41.141l29.629-17.107v-23.662zm-92.496 53.404l-23.022 13.291v156.68l53.504-30.891v-21.316l-30.482 17.6v-135.36zm-39.969 23.076l-23.022 13.291v156.68l23.022-13.291v-156.68zm-55.289 33.865c-3.9307 0.02663-8.8998 1.4881-15.135 5.0879-7.6739 4.4305-13.643 10.009-17.906 15.668-4.2633 5.6589-7.0347 11.522-8.9531 16.893-2.3448 6.2566-3.6227 12.75-3.8359 19.055v92.301c-0.2132 6.518 0.6401 11.781 2.5586 15.576 1.7053 3.2788 4.2627 5.8517 8.0996 6.834 3.837 1.1953 8.9533 0.161 16.414-4.1465 7.4607-4.3074 13.641-11.715 17.904-19.506l2.7714 5.8613 13.643-7.877v-78.018l-32.188 18.584v19.398l9.166-5.293v28.352c0 2.3448-0.2121 4.3867-0.8515 6.248-0.8527 3.6898-2.7722 7.3551-6.8223 9.6934-1.9185 1.1077-3.4107 1.3293-4.4766 0.8789-2.1316-1.1141-3.1972-3.4825-3.1972-7.959v-94.219c0-2.1316 0.214-4.1735 0.8535-6.248 0.8527-3.2634 2.7702-7.355 6.8203-9.6934 1.9185-1.1076 3.6237-1.4524 4.6895-1.002 2.1317 1.3272 2.9843 3.8188 2.9843 8.082v24.088l23.022-13.293v-24.086c-0.2132-6.0586-1.4911-11.076-3.8359-14.625-1.9185-3.1556-4.9027-5.6956-9.166-6.4316-0.7994-0.13803-1.6515-0.20928-2.5586-0.20313zm-78.455 43.352l-28.137 16.244-23.662 170.34 22.383-12.924 4.2636-34.436 22.168-12.799 4.2637 29.514 22.383-12.924-23.662-143.01zm-76.475 49.607c-5.8892-0.2168-13.477 2.3258-22.93 7.7832l-23.022 13.291v156.68l23.022-13.291v-66.08l6.1816-3.5703 11.938 59.19 23.022-13.291-14.707-67.395c8.7397-11.014 12.789-27.421 12.789-42.982 0-19.445-5.05-29.916-16.293-30.33zm63.045 5.041l0.6406 3.6816 6.6074 45.639-15.773 9.1074 6.6074-53.27 0.6407-4.4199 1.2773-0.73828zm-118.33 21.422l-54.783 31.629v156.68l23.022-13.291v-68.213l21.316-12.307v-23.662l-21.316 12.308v-41.142l31.762-18.336v-23.662zm41.228 0.79883c0.6868-0.01494 1.3566 0.06161 1.9961 0.25196 3.4107 1.0151 6.1816 5.3823 6.1816 16.467 0 11.085-2.7709 18.441-6.1816 23.394-3.4106 4.9534-7.6737 7.8415-10.871 9.6875v-46.471c2.5979-1.4999 5.8989-3.2653 8.875-3.3301z" fill="#643e27"/>
 <rect transform="matrix(.86603 -.5 0 1 0 0)" x="1567.6" y="1792.3" width="615.35" height="239.81" fill="none" stroke="#643e27" stroke-width="2.1491"/>
 <path d="m814.1 446.93 566.26-316.84 388.88 236.99-566.26 316.84z" fill="#f9f9f9"/>
 <path d="m1314.9 389.4 22.625 13.788 2.6854-1.5026-19.26-11.738 25.356 8.327 2.5186-1.4092-12.815-14.969 18.939 11.542 2.6854-1.5026-22.625-13.788-3.7492 2.0978 10.693 12.418c1.0869 1.256 1.9189 2.2 2.5024 2.8357-0.9516-0.33354-2.4003-0.82425-4.3522-1.4759l-21.005-6.973-4.1977 2.3487zm63.598-35.585 22.625 13.788 2.6854-1.5025-19.26-11.738 25.356 8.3271 2.5186-1.4093-12.815-14.969 18.939 11.542 2.6855-1.5025-22.625-13.788-3.7492 2.0977 10.693 12.418c1.0867 1.256 1.9188 2.2001 2.5023 2.8357-0.9516-0.33344-2.4003-0.82415-4.3521-1.4759l-21.005-6.973-4.1977 2.3488zm58.97-32.403-0.9036 2.454 4.062 2.4754-1.8977 1.0618 2.1607 1.3168 1.8976-1.0618 9.4266 5.7447c1.6666 1.0157 2.871 1.6264 3.6065 1.8282 0.7252 0.19555 1.5031 0.24391 2.3395 0.14869 0.8365-0.0949 1.7275-0.40369 2.6666-0.92927 0.5751-0.32175 1.1444-0.73652 1.7083-1.2444l-2.8308-1.2881c-0.3975 0.30666-0.7399 0.54387-1.0274 0.70475-0.3834 0.21453-0.7504 0.33813-1.095 0.3745-0.3351 0.031-0.6577 0-0.9799-0.0799-0.3126-0.0899-0.8709-0.3762-1.6631-0.85902l-9.5808-5.8387 2.6048-1.4574-2.1606-1.3168-2.6049 1.4576-5.7288-3.4912zm-85.939 54.349c-1.3129 0.73462-2.2752 1.5015-2.8809 2.2975-0.616 0.78968-0.8277 1.548-0.6347 2.2818 0.1829 0.72762 0.7376 1.5116 1.6703 2.3487l2.9006-1.19c-0.8847-0.86402-1.2599-1.5945-1.1377-2.1922 0.1217-0.60921 0.788-1.2563 2.0051-1.9373 1.3034-0.72933 2.5998-1.0842 3.8887-1.0718 0.9518 0.01 1.9933 0.35432 3.1251 1.0441 0.1029 0.063 0.3389 0.21683 0.7107 0.45374-0.6167 0.77808-1.833 1.8316-3.6548 3.1635-0.8919 0.65528-1.5228 1.1671-1.8866 1.5391-0.4842 0.5115-0.8006 1.0469-0.9551 1.6024-0.145 0.55027-0.059 1.1272 0.2651 1.7278 0.3231 0.58893 0.8887 1.1264 1.6912 1.6154 1.3684 0.83394 2.9425 1.2666 4.7282 1.3018 1.7754 0.029 3.5019-0.42247 5.1791-1.3608 1.0159-0.56845 1.7815-1.211 2.303-1.9237 0.5313-0.71823 0.8417-1.6134 0.9255-2.6827 0.8482 0.42746 1.6978 0.74351 2.5423 0.94435l2.7027-1.5122c-0.9535-0.20014-1.8303-0.47682-2.6244-0.82625-0.7947-0.36111-2.4863-1.327-5.0688-2.9008l-3.7038-2.2572c-1.2346-0.7524-2.129-1.2502-2.6885-1.4904-0.9148-0.3781-1.8107-0.61042-2.6879-0.69695-0.8875-0.0929-1.9031-0.01-3.0469 0.24721-1.1438 0.25509-2.3646 0.74571-3.668 1.475zm78.549-43.95c-0.7955 0.44515-1.4298 0.93236-1.9031 1.4617-0.474 0.51779-0.7527 0.98642-0.8364 1.406-0.1251 0.55116-0.038 1.1061 0.2733 1.6656 0.3107 0.54777 0.8344 1.0462 1.5649 1.4913 0.8025 0.48912 1.7246 0.82945 2.7673 1.0278 1.0419 0.18675 2.1204 0.19425 3.2294 0.019 1.1084-0.18716 2.8657-0.65329 5.2778-1.4015 1.7894-0.55636 2.9819-0.86032 3.5834-0.90818 0.868-0.065 1.6187 0.0919 2.2464 0.47493 0.6996 0.42636 1.0272 0.96224 0.9771 1.6037-0.061 0.6352-0.6852 1.2853-1.8735 1.9503-1.1789 0.65957-2.3952 0.99381-3.643 1.0064-1.2382 0.01-2.4825-0.28268-3.7271-0.87321l-2.1267 1.6951c2.0264 0.89879 4.0025 1.3302 5.9224 1.2902 1.9295-0.045 3.8861-0.62291 5.8699-1.7329 1.198-0.67027 2.0471-1.4076 2.5535-2.208 0.4961-0.80677 0.5929-1.5969 0.2784-2.3711-0.315-0.78588-0.9386-1.4592-1.8645-2.0236-0.9466-0.57684-1.942-0.94595-2.992-1.1041-1.05-0.15818-2.1067-0.1322-3.1642 0.0749-1.0584 0.19524-2.7652 0.64509-5.1204 1.3495-1.6356 0.48212-2.6312 0.7626-2.9928 0.84473-0.6459 0.1329-1.2264 0.16907-1.7356 0.10522-0.4989-0.058-0.9315-0.19805-1.2916-0.41747-0.5659-0.34493-0.803-0.78948-0.7169-1.3308 0.086-0.54127 0.7237-1.1409 1.912-1.8059 1.0063-0.56306 2.0193-0.85313 3.0388-0.87041 1.0292-0.023 2.0231 0.19105 2.9818 0.64079l2.1597-1.6414c-1.2225-0.55466-2.3634-0.90259-3.4223-1.0437-1.0692-0.14748-2.2443-0.0789-3.5251 0.20434-1.2712 0.27838-2.503 0.75111-3.7009 1.4214zm24.134-13.504c-2.1085 1.1798-3.0626 2.6036-2.8625 4.2715 0.2002 1.6681 1.679 3.3423 4.4363 5.0226 2.6648 1.6239 5.3866 2.5208 8.1716 2.6944 2.7843 0.16197 5.296-0.3798 7.529-1.6293 1.773-0.99202 2.7668-2.0892 2.9812-3.2917 0.2146-1.2024-0.306-2.4361-1.5614-3.6941l-3.0258 1.2817c0.78 0.93466 1.0991 1.7542 0.9633 2.4556-0.1359 0.70145-0.6754 1.316-1.6241 1.8468-1.2747 0.71324-2.82 1.015-4.6298 0.90918-1.8099-0.10591-3.6658-0.67906-5.5621-1.7227l11.386-6.3705c-0.3205-0.20564-0.5586-0.36112-0.7232-0.46134-2.7058-1.649-5.4546-2.5646-8.2403-2.7498-2.7856-0.18525-5.196 0.29517-7.2374 1.4374zm15.727-8.7997c-0.6038 0.33783-0.9745 0.7617-1.112 1.2717-0.128 0.5045 0.089 1.2754 0.6576 2.3164l-2.4817-1.5123-2.3288 1.3031 16.39 9.9882 2.5877-1.4479-8.5807-5.2292c-1.173-0.71484-2.1096-1.4536-2.8097-2.2164-0.4566-0.5022-0.6368-0.99072-0.5464-1.4622 0.08-0.47773 0.4028-0.87481 0.9683-1.1912 0.6325-0.35392 1.4625-0.58744 2.4963-0.69685l-1.6829-2.0675c-1.4976 0.14039-2.6854 0.45614-3.5575 0.94416zm11.173-6.2515c-1.0159 0.56835-1.6775 1.2272-1.9792 1.9732-0.3119 0.73982-0.3064 1.4848 0.017 2.242l-2.2964-1.3996-2.3174 1.2967 16.39 9.9882 2.5877-1.4479-8.5067-5.1841c-1.4919-0.90908-2.492-1.6845-3.0064-2.3228-0.5143-0.63829-0.6703-1.251-0.4685-1.8449 0.2114-0.59942 0.6842-1.1044 1.4125-1.512 0.9585-0.53628 1.9571-0.73422 2.9962-0.59393 1.0389 0.14019 2.1757 0.58653 3.4104 1.3389l10.649 6.4896 2.5877-1.4479-9.5253-5.8048c-1.6873-1.0283-2.5572-1.9729-2.6093-2.8337-0.062-0.86711 0.4461-1.599 1.5195-2.1997 0.5942-0.33244 1.2578-0.53298 1.9971-0.59783 0.7392-0.0649 1.4375 0.011 2.0942 0.22093 0.6561 0.19814 1.5366 0.6339 2.6479 1.3111l10.328 6.2939 2.576-1.4414-11.254-6.8583c-1.8725-1.1411-3.6634-1.753-5.3731-1.8427-1.72-0.0959-3.3344 0.27808-4.8486 1.1254-1.9359 1.0831-2.5508 2.5457-1.8447 4.3876-1.2025-0.3856-2.426-0.52849-3.6585-0.42816-1.2229 0.0949-2.3938 0.45913-3.5247 1.0918zm24.122-13.497c-1.313 0.73462-2.2753 1.5015-2.881 2.2975-0.616 0.78967-0.8277 1.548-0.6346 2.2818 0.1827 0.72763 0.7376 1.5116 1.6701 2.3488l2.9007-1.19c-0.8847-0.86412-1.2599-1.5946-1.1376-2.1923 0.1216-0.60922 0.7878-1.2563 2.005-1.9373 1.3034-0.72932 2.5997-1.0842 3.8887-1.0718 0.9517 0.01 1.9933 0.35432 3.125 1.0441 0.1029 0.063 0.3389 0.21682 0.7109 0.45384-0.6169 0.77798-1.8332 1.8314-3.655 3.1635-0.8918 0.65518-1.5226 1.167-1.8865 1.539-0.4843 0.51149-0.8006 1.047-0.9552 1.6024-0.145 0.55027-0.059 1.1272 0.2652 1.7278 0.323 0.58904 0.8887 1.1264 1.6911 1.6154 1.3685 0.83394 2.9425 1.2666 4.7282 1.3018 1.7754 0.029 3.5019-0.42237 5.1791-1.3608 1.0159-0.56845 1.7815-1.2108 2.3031-1.9237 0.5313-0.71813 0.8416-1.6134 0.9254-2.6827 0.8483 0.42746 1.6978 0.74351 2.5424 0.94435l2.7026-1.5121c-0.9534-0.20025-1.8303-0.47693-2.6243-0.82635-0.7948-0.36112-2.4864-1.327-5.0688-2.9007l-3.7039-2.2572c-1.2346-0.75241-2.129-1.2503-2.6885-1.4904-0.9147-0.3782-1.8106-0.61052-2.6878-0.69705-0.8875-0.0929-1.903-0.01-3.0469 0.2472-1.1439 0.2551-2.3646 0.74571-3.668 1.475zm17.119-9.5784c-2.118 1.1852-2.8405 2.6381-2.1613 4.3628l-2.3273-1.4183-2.3289 1.3031 16.39 9.9883 2.5876-1.4478-8.9511-5.455c-2.0989-1.2791-3.1263-2.3735-3.082-3.2763 0.054-0.90818 0.6322-1.6671 1.7344-2.2838 0.69-0.3861 1.4586-0.62131 2.306-0.69855 0.8468-0.0889 1.654-0.014 2.4211 0.21843 0.757 0.22592 1.7041 0.68226 2.8358 1.3719l9.9697 6.0757 2.5876-1.4479-10.081-6.1434c-1.2861-0.78368-2.2312-1.3037-2.8413-1.5636-0.9457-0.39699-1.9012-0.66567-2.8608-0.80237-0.9595-0.13659-2.0052-0.0929-3.1313 0.1284-1.1268 0.20964-2.1471 0.57365-3.0672 1.0884zm16.388-9.1696c-2.1181 1.1851-2.8405 2.638-2.1613 4.3628l-2.3273-1.4184-2.3289 1.3031 16.39 9.9883 2.5876-1.4478-8.9512-5.455c-2.0988-1.2791-3.1263-2.3735-3.0819-3.2763 0.054-0.90819 0.6323-1.6671 1.7344-2.2838 0.69-0.38609 1.4585-0.62131 2.306-0.69855 0.8468-0.0889 1.654-0.014 2.4211 0.21843 0.757 0.22592 1.704 0.68226 2.8358 1.3719l9.9697 6.0757 2.5877-1.4478-10.081-6.1434c-1.286-0.78378-2.2312-1.3037-2.8413-1.5637-0.9457-0.39698-1.9012-0.66567-2.8607-0.80236-0.9596-0.1366-2.0053-0.0929-3.1314 0.12849-1.1268 0.20954-2.1471 0.57355-3.0671 1.0883zm-178.22 100.15 13.029 1.9105 2.9413 8.3126 3.1339-1.7535-2.4558-6.1884 2.2103 0.37241 8.2269 1.3501 3.1742-1.776-14.349-2.1101-2.4434-7.6529-3.088 1.7278 1.2945 3.8002c0.1702 0.5182 0.3898 1.1024 0.6472 1.7522-0.7621-0.15088-1.7321-0.32734-2.9034-0.52588l-6.1859-1.0273-3.2317 1.8083zm48.458-27.113 10.155 6.1885c1.1832 0.72113 2.1031 1.2166 2.7539 1.49 0.9661 0.40947 1.916 0.68376 2.8557 0.81945 0.939 0.1241 1.9846 0.0799 3.1313-0.1284 1.1563-0.21403 2.1849-0.57305 3.0858-1.0772 2.0414-1.1422 2.7273-2.6084 2.0637-4.402l2.4076 1.4672 2.3174-1.2967-16.39-9.9882-2.5877 1.4478 8.7784 5.3497c1.3993 0.85273 2.3256 1.5852 2.7788 2.1976 0.4525 0.60062 0.5577 1.2249 0.3094 1.869-0.2587 0.63779-0.7792 1.172-1.5554 1.6063-0.7763 0.43435-1.6338 0.67356-2.5725 0.71773-0.949 0.038-1.8701-0.12021-2.7635-0.47423-0.6095-0.2483-1.6426-0.81275-3.0934-1.6968l-9.087-5.5377-2.5875 1.4478zm47.542-24.364c1.313-0.73462 2.9195-1.0081 4.8137-0.81715 1.2261 0.1198 2.5828 0.56575 4.0765 1.3415l-8.5276 4.7715c-1.3439-0.91977-2.0374-1.8667-2.0864-2.8376-0.039-0.97633 0.5354-1.7934 1.7238-2.4584zm-93.176 59.437 1.0186 0.62071c1.2243 0.74611 2.0143 1.3866 2.3639 1.9246 0.4487 0.69915 0.5217 1.4136 0.2186 2.1363-0.3132 0.71653-0.9685 1.3501-1.9652 1.9079-1.0063 0.56306-2.0199 0.84154-3.0409 0.83544-1.0114-0.011-1.8874-0.24281-2.6282-0.69425-0.4836-0.29467-0.8009-0.62461-0.9523-0.99701-0.1614-0.3786-0.1251-0.7573 0.11-1.1295 0.235-0.3721 0.7992-0.90428 1.6985-1.5998 1.5903-1.2265 2.6493-2.228 3.177-3.0043zm153.71-86.002 1.0186 0.62071c1.2244 0.74611 2.0143 1.3866 2.364 1.9246 0.4485 0.69914 0.5215 1.4136 0.2186 2.1363-0.3134 0.71653-0.9686 1.3501-1.9653 1.9079-1.0063 0.56305-2.0199 0.84153-3.041 0.83554-1.0113-0.012-1.8874-0.24281-2.6282-0.69435-0.4835-0.29467-0.8008-0.62461-0.9521-0.99701-0.1616-0.37861-0.1251-0.75731 0.1099-1.1295 0.235-0.37211 0.7993-0.90429 1.6985-1.5998 1.5903-1.2265 2.6494-2.228 3.177-3.0043zm-24.429 34.733c-1.2459 0.69715-2.0791 1.5001-2.4998 2.4089-0.4204 0.90878-0.3369 1.7978 0.2504 2.6598 0.5866 0.85043 1.8182 1.8474 3.7011 2.9948l15.421 9.3977 2.5877-1.448-15.297-9.3223c-2.2635-1.3794-3.4089-2.4584-3.4363-3.2368-0.027-0.77849 0.4746-1.4562 1.5001-2.03 0.8721-0.48791 1.811-0.72462 2.8224-0.71323 1.0106-2e-4 1.8409 0.19434 2.4788 0.58304 0.3498 0.21323 0.6742 0.5007 0.9738 0.86222 0.2993 0.36171 0.6526 0.95784 1.0596 1.7885 0.4168 0.82525 0.7609 1.4024 1.0382 1.7283 0.2871 0.32045 0.6308 0.59953 1.0321 0.84404 0.6173 0.3762 1.4139 0.63769 2.3838 0.78058 0.9602 0.14818 2.8162 0.13439 5.5801-0.041 1.51-0.0989 2.4994-0.1237 2.9682-0.0729 0.7182 0.0789 1.3654 0.29437 1.9416 0.64549 0.7202 0.43895 1.089 0.96613 1.1065 1.5818 0.018 0.61561-0.3379 1.1272-1.0663 1.5348-0.5271 0.29487-1.2126 0.46194-2.0622 0.50441-0.8496 0.042-1.9893-0.0919-3.4253-0.40708l-1.1199 1.9256c1.541 0.41258 3.1165 0.57735 4.7266 0.49431 1.5999-0.0889 3.0034-0.47532 4.2109-1.151 1.5334-0.85802 2.2827-1.8689 2.2416-3.0367-0.032-1.1731-0.7651-2.1938-2.1951-3.0653-1.0804-0.65838-2.3233-1.0574-3.7289-1.197-0.9869-0.0969-2.5901-0.0639-4.8092 0.10751-1.6272 0.1287-2.7057 0.15248-3.2362 0.0639-0.5298-0.0769-0.9625-0.21683-1.2917-0.41747-0.2469-0.15048-0.4693-0.35312-0.6732-0.61192-0.2141-0.26509-0.5125-0.77159-0.8947-1.5199-0.3925-0.75461-0.7834-1.3512-1.1665-1.7864-0.383-0.43506-0.8339-0.81066-1.3586-1.1304-1.1729-0.71483-2.6732-1.078-4.5069-1.0863-1.8439-0.015-3.5979 0.44005-5.2559 1.3677zm43.809-24.166c0.5269 0.84773 0.7686 1.8912 0.7247 3.1304-0.044 1.2392-0.424 2.4862-1.1407 3.7411l2.6853 1.6365c0.4862-0.64479 0.9132-1.4466 1.2816-2.3984 0.378-0.95714 0.5566-1.8028 0.5417-2.5401l17.705 10.79 2.5877-1.4479-22.717-13.844-1.6676 0.93306zm-188.73 105.71 22.625 13.788 2.6854-1.5025-19.26-11.738 25.356 8.3271 2.5186-1.4093-12.815-14.969 18.94 11.542 2.6854-1.5025-22.625-13.788-3.7493 2.0977 10.693 12.418c1.0868 1.256 1.9188 2.2001 2.5024 2.8357-0.9516-0.33344-2.4003-0.82415-4.3522-1.4759l-21.005-6.973-4.1977 2.3487zm58.97-32.403-0.9036 2.454 4.062 2.4754-1.8976 1.0618 2.1606 1.3168 1.8976-1.0618 9.4265 5.7446c1.6668 1.0157 2.8711 1.6264 3.6066 1.8282 0.7252 0.19554 1.5031 0.24381 2.3395 0.14858 0.8366-0.0949 1.7275-0.40368 2.6667-0.92916 0.5751-0.32175 1.1443-0.73652 1.7082-1.2444l-2.8308-1.2882c-0.3975 0.30676-0.7399 0.54397-1.0274 0.70484-0.3834 0.21443-0.7504 0.33803-1.095 0.37451-0.3352 0.031-0.6578 0-0.9798-0.0799-0.3127-0.0899-0.871-0.3762-1.6632-0.85902l-9.5808-5.8387 2.6048-1.4576-2.1606-1.3167-2.6048 1.4574-5.7288-3.4911zm49.108-27.477-0.9036 2.4539 4.062 2.4754-1.8976 1.0618 2.1606 1.3168 1.8976-1.0618 9.4266 5.7447c1.6666 1.0157 2.8709 1.6264 3.6065 1.8282 0.7252 0.19555 1.5031 0.24381 2.3396 0.14868 0.8365-0.0949 1.7274-0.40368 2.6665-0.92916 0.5751-0.32185 1.1444-0.73662 1.7083-1.2445l-2.8308-1.2881c-0.3975 0.30666-0.7399 0.54387-1.0275 0.70474-0.3833 0.21453-0.7503 0.33814-1.0949 0.37451-0.3351 0.031-0.6578 0-0.9798-0.0799-0.3127-0.0899-0.8709-0.3762-1.6632-0.85902l-9.5808-5.8387 2.6048-1.4574-2.1606-1.3168-2.6049 1.4576-5.7287-3.4912zm-56.498 37.876c-0.7954 0.44505-1.4298 0.93227-1.903 1.4618-0.4741 0.51769-0.7527 0.98642-0.8364 1.406-0.1251 0.55116-0.038 1.1061 0.2734 1.6656 0.3106 0.54777 0.8342 1.0462 1.5648 1.4913 0.8024 0.48901 1.7249 0.82924 2.7673 1.0277 1.0418 0.18685 2.1204 0.19434 3.2294 0.019 1.1084-0.18715 2.8656-0.65328 5.2777-1.4016 1.7895-0.55626 2.982-0.86022 3.5835-0.90818 0.868-0.065 1.6187 0.0929 2.2464 0.47502 0.6996 0.42637 1.0272 0.96224 0.9771 1.6036-0.061 0.6353-0.6851 1.2854-1.8736 1.9504-1.1787 0.65958-2.3952 0.99382-3.6429 1.0064-1.238 0.01-2.4823-0.28288-3.727-0.87321l-2.1268 1.6951c2.0264 0.89869 4.0025 1.3301 5.9224 1.2902 1.9294-0.045 3.8861-0.62291 5.8699-1.7329 1.198-0.67037 2.0471-1.4076 2.5535-2.2081 0.4961-0.80676 0.5929-1.597 0.2785-2.3711-0.3152-0.78588-0.9387-1.4594-1.8646-2.0236-0.9466-0.57685-1.942-0.94595-2.992-1.1041-1.05-0.15817-2.1067-0.13219-3.1643 0.0749-1.0583 0.19535-2.7651 0.64519-5.1203 1.3496-1.6355 0.48212-2.6312 0.7626-2.9928 0.84474-0.6459 0.13289-1.2264 0.16896-1.7356 0.10511-0.4989-0.0579-0.9315-0.19794-1.2917-0.41737-0.5658-0.34492-0.8029-0.78947-0.7167-1.3308 0.086-0.54128 0.7235-1.1409 1.9119-1.8059 1.0064-0.56305 2.0193-0.85322 3.0389-0.87041 1.0291-0.023 2.023 0.19095 2.9816 0.6408l2.1598-1.6414c-1.2225-0.55476-2.3634-0.90258-3.4223-1.0438-1.0691-0.14738-2.2442-0.0789-3.5251 0.20444-1.2713 0.27838-2.503 0.7511-3.701 1.4214zm24.134-13.504c-2.1084 1.1797-3.0625 2.6035-2.8624 4.2715 0.2002 1.668 1.679 3.3422 4.4363 5.0226 2.6648 1.6239 5.3865 2.5208 8.1715 2.6944 2.7843 0.16207 5.296-0.3799 7.5291-1.6293 1.7731-0.99201 2.7668-2.0892 2.9812-3.2917 0.2145-1.2024-0.306-2.4362-1.5614-3.6941l-3.0259 1.2817c0.78 0.93456 1.0993 1.7543 0.9634 2.4557-0.1358 0.70145-0.6753 1.316-1.6241 1.8468-1.2747 0.71324-2.82 1.015-4.6298 0.90908-1.8098-0.10582-3.6659-0.67896-5.5622-1.7226l11.386-6.3706c-0.3204-0.20554-0.5585-0.36101-0.7231-0.46133-2.7059-1.649-5.4546-2.5645-8.2403-2.7497-2.7856-0.18525-5.1961 0.29507-7.2375 1.4373zm15.727-8.7997c-0.6037 0.33784-0.9744 0.7617-1.1119 1.2716-0.128 0.5046 0.089 1.2755 0.6576 2.3165l-2.4817-1.5123-2.3288 1.3031 16.39 9.9882 2.5876-1.4478-8.5808-5.2293c-1.1729-0.71473-2.1095-1.4536-2.8096-2.2163-0.4566-0.50221-0.6367-0.99072-0.5464-1.4622 0.08-0.47772 0.4028-0.87481 0.9682-1.1912 0.6325-0.35392 1.4627-0.58753 2.4965-0.69685l-1.683-2.0675c-1.4976 0.14039-2.6854 0.45614-3.5576 0.94415zm9.2466-5.1737c-0.7955 0.44514-1.4299 0.93236-1.9031 1.4617-0.474 0.51779-0.7528 0.98642-0.8364 1.4061-0.1251 0.55106-0.038 1.106 0.2733 1.6655 0.3107 0.54777 0.8344 1.0462 1.5649 1.4913 0.8025 0.48911 1.7249 0.82924 2.7673 1.0278 1.0419 0.18675 2.1204 0.19424 3.2294 0.019 1.1084-0.18715 2.8658-0.65328 5.2778-1.4015 1.7895-0.55626 2.9819-0.86032 3.5834-0.90818 0.868-0.065 1.6188 0.0919 2.2464 0.47492 0.6996 0.42637 1.0275 0.96214 0.9771 1.6037-0.061 0.63519-0.6851 1.2853-1.8735 1.9502-1.1788 0.65958-2.3952 0.99382-3.643 1.0064-1.2382 0.01-2.4825-0.28268-3.727-0.87321l-2.1268 1.6952c2.0265 0.89869 4.0025 1.33 5.9224 1.2901 1.9295-0.045 3.8861-0.62291 5.8699-1.7329 1.198-0.67027 2.0471-1.4076 2.5535-2.2081 0.4961-0.80676 0.593-1.5969 0.2785-2.3711-0.3152-0.78588-0.9387-1.4592-1.8646-2.0236-0.9466-0.57684-1.942-0.94595-2.9919-1.1041-1.0501-0.15817-2.1068-0.13219-3.1644 0.0749-1.0583 0.19525-2.7651 0.64509-5.1203 1.3496-1.6355 0.48201-2.6312 0.76249-2.9928 0.84463-0.6459 0.13289-1.2264 0.16906-1.7356 0.10521-0.4989-0.058-0.9316-0.19804-1.2916-0.41747-0.5659-0.34482-0.8031-0.78947-0.7168-1.3308 0.086-0.54127 0.7236-1.1409 1.9119-1.8059 1.0063-0.56306 2.0193-0.85313 3.0388-0.87042 1.0292-0.023 2.0231 0.19105 2.9818 0.6408l2.1598-1.6414c-1.2226-0.55467-2.3635-0.90249-3.4224-1.0437-1.0692-0.14748-2.2442-0.0789-3.525 0.20434-1.2713 0.27838-2.5031 0.7511-3.701 1.4214zm23.473-13.134c-0.6038 0.33783-0.9744 0.7617-1.112 1.2716-0.1279 0.5046 0.089 1.2755 0.6577 2.3165l-2.4817-1.5123-2.3289 1.3031 16.39 9.9882 2.5876-1.4478-8.5808-5.2293c-1.1729-0.71473-2.1095-1.4534-2.8096-2.2164-0.4566-0.5022-0.6367-0.99071-0.5464-1.4622 0.08-0.47772 0.4028-0.87481 0.9682-1.1912 0.6326-0.35392 1.4627-0.58743 2.4965-0.69685l-1.683-2.0675c-1.4976 0.14039-2.6854 0.45614-3.5575 0.94415zm10.684-5.9781c-1.3129 0.73472-2.2752 1.5016-2.8809 2.2976-0.616 0.78968-0.8277 1.548-0.6347 2.2818 0.1829 0.72752 0.7377 1.5116 1.6703 2.3487l2.9005-1.19c-0.8847-0.86401-1.2598-1.5945-1.1375-2.1922 0.1216-0.60932 0.7879-1.2563 2.005-1.9374 1.3035-0.72923 2.5998-1.0841 3.8886-1.0718 0.9518 0.01 1.9935 0.35442 3.1252 1.0441 0.1029 0.063 0.3389 0.21693 0.7107 0.45384-0.6167 0.77809-1.833 1.8314-3.6548 3.1635-0.8919 0.65528-1.5227 1.1671-1.8866 1.5391-0.4842 0.5115-0.8006 1.0469-0.9551 1.6024-0.1451 0.55017-0.059 1.1272 0.2651 1.7278 0.3231 0.58893 0.8887 1.1263 1.6913 1.6154 1.3684 0.83394 2.9423 1.2666 4.7281 1.3018 1.7754 0.029 3.5018-0.42247 5.179-1.3608 1.016-0.56845 1.7816-1.211 2.3031-1.9237 0.5313-0.71823 0.8417-1.6135 0.9255-2.6827 0.8482 0.42736 1.6978 0.74341 2.5424 0.94435l2.7027-1.5122c-0.9536-0.20014-1.8304-0.47682-2.6245-0.82635-0.7947-0.36111-2.4863-1.327-5.0688-2.9007l-3.7038-2.2572c-1.2346-0.7524-2.1289-1.2502-2.6885-1.4904-0.9148-0.3781-1.8107-0.61052-2.688-0.69695-0.8874-0.0929-1.9029-0.01-3.0468 0.24711-1.1438 0.25519-2.3646 0.74581-3.668 1.475zm34.197-19.134c-2.1086 1.1798-3.0626 2.6036-2.8625 4.2716 0.2002 1.668 1.6789 3.3422 4.4363 5.0225 2.6648 1.6239 5.3866 2.5209 8.1716 2.6945 2.7842 0.16197 5.296-0.3799 7.5289-1.6293 1.7731-0.99212 2.7669-2.0894 2.9813-3.2918 0.2146-1.2024-0.3061-2.4361-1.5615-3.6941l-3.0257 1.2817c0.7799 0.93466 1.0991 1.7543 0.9632 2.4558-0.1358 0.70134-0.6753 1.316-1.6241 1.8468-1.2746 0.71313-2.82 1.0149-4.6297 0.90908-1.8099-0.10582-3.6658-0.67896-5.5621-1.7226l11.386-6.3706c-0.3205-0.20564-0.5586-0.36101-0.7232-0.46134-2.7059-1.649-5.4546-2.5646-8.2403-2.7498-2.7856-0.18515-5.196 0.29517-7.2374 1.4374zm-138.56 77.959 10.155 6.1886c1.1832 0.72103 2.1031 1.2166 2.7538 1.4899 0.9662 0.40948 1.9162 0.68376 2.8558 0.81956 0.9389 0.124 1.9846 0.0799 3.1313-0.1285 1.1563-0.21393 2.1849-0.57305 3.0857-1.077 2.0414-1.1422 2.7275-2.6084 2.0638-4.402l2.4076 1.4672 2.3174-1.2967-16.39-9.9882-2.5876 1.4478 8.7782 5.3496c1.3993 0.85272 2.3257 1.5852 2.7788 2.1976 0.4527 0.60073 0.5578 1.2249 0.3095 1.869-0.2586 0.6378-0.7791 1.172-1.5555 1.6064-0.7763 0.43436-1.6337 0.67357-2.5723 0.71774-0.949 0.038-1.8701-0.12021-2.7636-0.47433-0.6096-0.2482-1.6426-0.81276-3.0933-1.6969l-9.087-5.5377-2.5877 1.4479zm47.542-24.364c1.313-0.73462 2.9195-1.0081 4.8137-0.81716 1.226 0.11981 2.5829 0.56575 4.0766 1.3415l-8.5278 4.7715c-1.3438-0.91978-2.0374-1.8667-2.0863-2.8377-0.039-0.97613 0.5355-1.7933 1.7238-2.4582zm93.327-52.219c1.3131-0.73461 2.9195-1.0081 4.8138-0.81725 1.226 0.11981 2.5828 0.56575 4.0765 1.3416l-8.5277 4.7714c-1.3439-0.91978-2.0374-1.8667-2.0863-2.8376-0.039-0.97623 0.5354-1.7933 1.7237-2.4583zm-24.689 21.117 1.0186 0.62071c1.2243 0.74611 2.0144 1.3866 2.3639 1.9246 0.4487 0.69915 0.5217 1.4136 0.2186 2.1363-0.3132 0.71653-0.9684 1.3501-1.9652 1.9078-1.0063 0.56306-2.0199 0.84154-3.0409 0.83554-1.0114-0.011-1.8875-0.24281-2.6282-0.69425-0.4835-0.29467-0.8009-0.62471-0.9523-0.99701-0.1614-0.3786-0.125-0.7574 0.1099-1.1295 0.2351-0.3721 0.7994-0.90428 1.6986-1.5998 1.5903-1.2265 2.6494-2.228 3.177-3.0043zm-107.36 81.152c-1.5334 0.85792-2.3657 1.8408-2.4968 2.9484-0.1215 1.1023 0.3772 2.3002 1.4957 3.5868 1.1176 1.2748 3.0169 2.7258 5.6919 4.356 4.2493 2.5896 8.0072 4.0709 11.28 4.4408 2.7235 0.30416 5.1041-0.11371 7.1358-1.2506 1.5431-0.86332 2.3752-1.8461 2.4967-2.9485 0.1208-1.1138-0.3836-2.3086-1.5013-3.5834-1.1279-1.2812-3.0131-2.7303-5.6677-4.3481-2.2428-1.3668-4.1839-2.3614-5.8171-2.987-1.6435-0.6319-3.1982-1.073-4.6697-1.32-1.4818-0.2533-2.897-0.28897-4.2335-0.10642-1.3468 0.17636-2.5828 0.57924-3.7137 1.212zm17.596-9.8454c0.527 0.84763 0.7685 1.8911 0.7248 3.1303-0.044 1.2392-0.4241 2.4863-1.1407 3.7412l2.6852 1.6365c0.4862-0.64489 0.9136-1.4397 1.282-2.3915 0.378-0.95714 0.5625-1.806 0.5475-2.5433l17.699 10.786 2.5876-1.4478-22.717-13.844-1.6676 0.93306zm15.307-8.5649c-2.003 1.1208-3.032 2.3556-3.0989 3.704-0.077 1.3421 0.8521 2.7128 2.7997 4.1126l2.9586-1.3092c-1.411-0.87022-2.1457-1.758-2.2006-2.6653-0.055-0.90738 0.5404-1.7095 1.7863-2.4067 1.1789-0.65958 2.516-0.96274 4.0057-0.90629 1.4891 0.045 2.7812 0.40418 3.882 1.0752 1.0495 0.6395 1.7602 1.5432 2.1383 2.7147 0.3679 1.1653 0.4178 3.0015 0.1438 5.5121-0.1796 1.6158-0.1684 2.9446 0.033 3.9862 0.2114 1.0363 0.6522 1.9659 1.3161 2.7851 0.3965 0.49971 0.9329 0.94765 1.6213 1.3442l13.933-7.7958-2.6668-1.6252-10.339 5.7849c-0.2165-0.46813-0.3545-0.97783-0.4075-1.5255-0.063-0.55386-0.015-1.6897 0.1381-3.4111 0.172-2.0687 0.175-3.6217 0-4.6562-0.1621-1.0399-0.511-1.9247-1.0405-2.6506-0.5295-0.72603-1.244-1.363-2.1493-1.9148-1.7799-1.0847-3.8641-1.6625-6.2467-1.7365-2.3826-0.0739-4.5881 0.45284-6.6103 1.5842zm16.01-8.9503c-1.6676 0.93306-2.5505 2.0284-2.643 3.2828-0.1027 1.2482 0.619 2.5282 2.1649 3.8401l3.0815-1.1469c-1.1664-0.93487-1.7537-1.797-1.7619-2.5862-0.01-0.78918 0.4937-1.4669 1.5-2.03 1.0159-0.56845 2.1734-0.82875 3.4842-0.78049 1.3109 0.048 2.4786 0.3812 3.4972 1.0019 1.2861 0.78378 1.8 1.6123 1.5356 2.4818s-0.9506 1.6142-2.0527 2.2309c-0.1054 0.059-0.2572 0.1255-0.4512 0.20914l2.1508 1.6469c0.5225-0.53298 1.0254-0.93457 1.5142-1.208 1.198-0.67027 2.6049-0.96673 4.2146-0.89329 1.5994 0.0669 3.0399 0.48801 4.3157 1.2655 1.3375 0.81515 2.0373 1.7345 2.0993 2.7582 0.072 1.0183-0.5012 1.8679-1.7183 2.549-1.0255 0.57375-2.2453 0.84983-3.6535 0.83194-1.4088-0.03-3.0486-0.43745-4.9199-1.2305l-2.2173 1.6736c2.0554 1.0509 4.286 1.5947 6.6864 1.6348 2.4099 0.035 4.5399-0.46194 6.3897-1.4969 2.051-1.1476 3.06-2.5155 3.0333-4.1002-0.037-1.5909-1.0431-2.9883-3.0185-4.1922-1.4611-0.8904-3.0201-1.4373-4.6773-1.6405-1.6675-0.20954-3.2753-0.058-4.83 0.45104 0.4852-0.82465 0.5737-1.6199 0.26-2.3824-0.3138-0.7626-0.9654-1.442-1.9428-2.0376-1.0289-0.62701-2.2568-1.0728-3.6901-1.3413-1.4235-0.27379-2.8817-0.29977-4.3744-0.0779-1.503 0.21563-2.8267 0.64349-3.9767 1.287zm18.631-10.324 5.0411 14.318 2.5496 1.5537 9.143-5.1158 5.4139 3.2993 2.5876-1.4478-5.4139-3.2993 2.8464-1.5926-2.5495-1.5537-2.8464 1.5926-14.661-8.9349-2.1104 1.1809zm16.745-9.3693 22.625 13.788 2.6912-1.5057-19.26-11.738 25.356 8.3271 2.5129-1.4061-12.809-14.965 18.933 11.538 2.6911-1.5058-22.625-13.788-3.755 2.101 10.699 12.415c1.0869 1.2561 1.9251 2.2038 2.5086 2.8394-0.9516-0.33344-2.4065-0.82794-4.3584-1.4797l-21.011-6.9697-4.1976 2.3486zm138.81-77.669 8.1178 4.9471c-1.1193-0.15548-2.241-0.15568-3.3713 0-1.1406 0.14509-2.1711 0.47163-3.0911 0.98632-1.2555 0.70254-2.0361 1.5578-2.3421 2.5589-0.3059 1.001-0.044 2.0477 0.7853 3.147 0.8193 1.093 2.044 2.1396 3.6799 3.1366 1.6771 1.022 3.4449 1.7744 5.297 2.2534 1.8515 0.46734 3.6451 0.6328 5.3812 0.50331 1.7458-0.1349 3.2272-0.54287 4.4443-1.2238 1.8784-1.0511 2.486-2.3411 1.8283-3.8734l2.068 1.2603 2.4037-1.3448-22.625-13.788-2.5761 1.4414zm-79.831 45.266-0.9094 2.4572 4.0558 2.4717-1.8976 1.0617 2.1607 1.3168 1.8976-1.0618 9.4326 5.7485c1.6668 1.0157 2.8648 1.6226 3.6005 1.8244 0.7252 0.19555 1.5093 0.24761 2.3457 0.15248 0.8364-0.0949 1.7212-0.40747 2.6604-0.93296 0.575-0.32174 1.1444-0.73662 1.7082-1.2444l-2.8245-1.2845c-0.3976 0.30676-0.7404 0.53698-1.0279 0.69785-0.3833 0.21453-0.7442 0.34183-1.0889 0.3783-0.3351 0.031-0.6695 0-0.9918-0.0799-0.3125-0.0899-0.8591-0.3755-1.6513-0.85832l-9.587-5.8425 2.5992-1.4542-2.1607-1.3168-2.5992 1.4542-5.7225-3.4873zm49.108-27.477-0.9094 2.4572 4.0558 2.4716-1.8976 1.0618 2.1607 1.3166 1.8976-1.0618 9.4326 5.7485c1.6668 1.0158 2.8649 1.6226 3.6005 1.8244 0.7252 0.19555 1.5092 0.24761 2.3457 0.15238 0.8365-0.0949 1.7213-0.40747 2.6604-0.93296 0.5751-0.32174 1.1444-0.73662 1.7082-1.2444l-2.8245-1.2844c-0.3976 0.30666-0.7403 0.53688-1.0279 0.69775-0.3833 0.21453-0.7442 0.34193-1.0888 0.3784-0.3352 0.031-0.6697 0-0.9918-0.0799-0.3126-0.0899-0.8592-0.3756-1.6513-0.85842l-9.587-5.8425 2.5991-1.4542-2.1607-1.3168-2.5991 1.4544-5.7226-3.4874zm40.942-22.908-0.9094 2.4572 4.0558 2.4716-1.8976 1.0618 2.1607 1.3168 1.8976-1.0618 9.4326 5.7484c1.6668 1.0158 2.8649 1.6227 3.6004 1.8244 0.7253 0.19555 1.5093 0.24761 2.3458 0.15238 0.8365-0.0949 1.7212-0.40738 2.6604-0.93296 0.5751-0.32175 1.1444-0.73652 1.7082-1.2444l-2.8246-1.2844c-0.3975 0.30666-0.7402 0.53688-1.0278 0.69785-0.3834 0.21443-0.7442 0.34183-1.0888 0.3783-0.3352 0.031-0.6697 0-0.9918-0.0799-0.3126-0.0899-0.8592-0.3756-1.6514-0.85842l-9.5869-5.8424 2.599-1.4544-2.1606-1.3167-2.5991 1.4542-5.7226-3.4874zm-231.05 131.26c1.2076-0.67567 2.8229-0.86751 4.8523-0.57185 2.039 0.29037 4.921 1.5739 8.6455 3.8437 3.704 2.2572 5.7688 3.9884 6.1888 5.1966 0.4295 1.2028 0.05 2.1367-1.1382 2.8017-1.1884 0.66487-2.8081 0.85192-4.8471 0.56155-2.0397-0.30196-4.9135-1.5828-8.6277-3.8463s-5.8152-4.0682-6.3027-5.4071c-0.3711-1.0552 0.041-1.9133 1.2291-2.5783zm69.256-36.117 10.198 6.215-6.5957 3.6904-3.6025-9.9054zm64.338-34.361c-0.7954 0.44505-1.4298 0.93226-1.9031 1.4616-0.474 0.51779-0.7528 0.98642-0.8363 1.4061-0.1252 0.55107-0.026 1.1066 0.2853 1.666 0.3105 0.54787 0.8281 1.0425 1.5585 1.4876 0.8026 0.48911 1.7253 0.83634 2.7678 1.0348 1.0419 0.18675 2.1143 0.19045 3.2233 0.015 1.1083-0.18716 2.8714-0.65648 5.2834-1.4047 1.7896-0.55636 2.9881-0.85653 3.5897-0.90449 0.8681-0.065 1.613 0.0959 2.2406 0.47822 0.6996 0.42637 1.0211 0.95845 0.9709 1.5999-0.061 0.6352-0.6851 1.2853-1.8735 1.9503-1.1788 0.65958-2.389 0.99751-3.6367 1.0102-1.2382 0.01-2.4768-0.28598-3.7214-0.87641l-2.1268 1.6951c2.0265 0.89869 3.9964 1.3264 5.9162 1.2864 1.9295-0.045 3.8862-0.6229 5.8701-1.7329 1.1979-0.67027 2.0532-1.4038 2.5596-2.2042 0.4961-0.80676 0.5809-1.5975 0.2665-2.3717-0.3152-0.78588-0.9328-1.4625-1.8588-2.0268-0.9466-0.57685-1.9478-0.94266-2.9977-1.1009-1.0501-0.15818-2.101-0.1354-3.1586 0.0719-1.0584 0.19525-2.7651 0.64509-5.1203 1.3495-1.6356 0.48212-2.637 0.7658-2.9986 0.84793-0.6459 0.1329-1.2206 0.16587-1.7298 0.10192-0.4989-0.058-0.9254-0.19415-1.2855-0.41367-0.5658-0.34483-0.8085-0.78628-0.7225-1.3276s0.7231-1.1479 1.9116-1.8129c1.0063-0.56305 2.0192-0.85312 3.0388-0.87041 1.0291-0.023 2.023 0.19105 2.9817 0.64079l2.1597-1.6414c-1.2225-0.55466-2.3634-0.90248-3.4223-1.0437-1.0691-0.14749-2.2441-0.0789-3.525 0.20444-1.2713 0.27828-2.5088 0.7542-3.7068 1.4246zm24.14-13.507c-2.1085 1.1798-3.0627 2.6036-2.8625 4.2716s1.679 3.3422 4.4364 5.0225c2.6648 1.6239 5.3927 2.5246 8.1776 2.6982 2.7843 0.16197 5.2899-0.3836 7.5229-1.6331 1.773-0.99202 2.7669-2.0892 2.9813-3.2917 0.2145-1.2024-0.3058-2.4291-1.5611-3.6871l-3.032 1.2779c0.78 0.93466 1.1049 1.7511 0.9691 2.4525-0.1358 0.70144-0.6811 1.3192-1.6299 1.85-1.2746 0.71324-2.8138 1.0188-4.6236 0.91298-1.8099-0.10591-3.66-0.68226-5.5564-1.7259l11.386-6.3706c-0.3205-0.20564-0.5645-0.35772-0.729-0.45804-2.706-1.649-5.4489-2.5678-8.2346-2.753-2.7857-0.18526-5.2023 0.29136-7.2436 1.4336zm15.727-8.7997c-0.6037 0.33783-0.9745 0.7617-1.112 1.2717-0.1279 0.5045 0.096 1.2792 0.6637 2.3202l-2.4878-1.5161-2.3289 1.3031 16.39 9.9882 2.5876-1.4479-8.5808-5.2292c-1.1729-0.71483-2.1095-1.4536-2.8097-2.2164-0.4564-0.5022-0.6425-0.98752-0.552-1.4589 0.08-0.47783 0.4028-0.87491 0.9682-1.1913 0.6325-0.35392 1.4687-0.58364 2.5025-0.69305l-1.689-2.0713c-1.4978 0.14039-2.6797 0.45305-3.5518 0.94096zm9.2408-5.1704c-0.7955 0.44505-1.4299 0.93226-1.9031 1.4617-0.4741 0.51769-0.7528 0.98642-0.8364 1.406-0.1252 0.55107-0.026 1.1066 0.2853 1.6661 0.3106 0.54777 0.8281 1.0424 1.5586 1.4876 0.8025 0.48901 1.7252 0.83624 2.7678 1.0347 1.0419 0.18675 2.1141 0.19055 3.2232 0.015 1.1083-0.18715 2.8714-0.65658 5.2834-1.4048 1.7896-0.55626 2.9882-0.85652 3.5897-0.90439 0.8681-0.0649 1.613 0.0959 2.2406 0.47813 0.6997 0.42636 1.0211 0.95854 0.971 1.5999-0.061 0.6353-0.6852 1.2854-1.8736 1.9503-1.1788 0.65958-2.389 0.99761-3.6367 1.0102-1.2383 0.01-2.4768-0.28587-3.7213-0.87641l-2.1268 1.6951c2.0264 0.89879 3.9963 1.3264 5.9162 1.2865 1.9294-0.045 3.8861-0.6229 5.87-1.7329 1.198-0.67037 2.0532-1.4039 2.5596-2.2044 0.4961-0.80676 0.5809-1.5975 0.2665-2.3717-0.3152-0.78577-0.9329-1.4624-1.8588-2.0268-0.9466-0.57685-1.9478-0.94266-2.9978-1.1008-1.0499-0.15818-2.1008-0.1355-3.1585 0.0719-1.0582 0.19535-2.7651 0.64509-5.1203 1.3496-1.6355 0.48202-2.637 0.7658-2.9985 0.84783-0.6459 0.133-1.2207 0.16587-1.7299 0.10202-0.4989-0.058-0.9253-0.19424-1.2855-0.41367-0.5658-0.34493-0.8085-0.78638-0.7225-1.3276s0.7231-1.1479 1.9115-1.8128c1.0064-0.56305 2.0193-0.85322 3.0389-0.87051 1.0291-0.023 2.023 0.19105 2.9817 0.64089l2.1597-1.6414c-1.2225-0.55476-2.3634-0.90258-3.4223-1.0438-1.0691-0.14749-2.2442-0.0789-3.5251 0.20444-1.2712 0.27828-2.5087 0.7543-3.7066 1.4246zm24.324-13.61c-1.313 0.73462-2.2695 1.4983-2.8752 2.2943-0.616 0.78967-0.8274 1.555-0.6342 2.2888 0.1827 0.72752 0.7434 1.5084 1.676 2.3455l2.9005-1.19c-0.8847-0.86402-1.2718-1.5951-1.1495-2.1928 0.1216-0.60922 0.794-1.2525 2.0113-1.9336 1.3033-0.72922 2.5993-1.0911 3.8882-1.0786 0.9517 0.01 1.9937 0.36132 3.1255 1.0511 0.1028 0.063 0.3399 0.20903 0.7105 0.44665-0.6167 0.77808-1.8389 1.8348-3.6606 3.1668-0.8918 0.65528-1.5165 1.1708-1.8804 1.5428-0.4843 0.5115-0.8068 1.0432-0.9614 1.5987-0.145 0.55016-0.053 1.1239 0.271 1.7245 0.323 0.58894 0.8829 1.1296 1.6854 1.6187 1.3684 0.83384 2.9485 1.2703 4.7343 1.3055 1.7754 0.029 3.5014-0.42936 5.1786-1.3678 1.0159-0.56835 1.7878-1.2071 2.3094-1.9199 0.5312-0.71823 0.8358-1.6102 0.9197-2.6795 0.8482 0.42746 1.6915 0.73972 2.5362 0.94066l2.7026-1.5122c-0.9534-0.20014-1.8241-0.47312-2.6182-0.82255-0.7948-0.36111-2.4804-1.3302-5.0629-2.9041l-3.7039-2.2572c-1.2347-0.75241-2.1345-1.2471-2.694-1.4872-0.9148-0.3782-1.8107-0.61052-2.6879-0.69705-0.8876-0.0929-1.9034-0.015-3.0473 0.24021-1.1439 0.2552-2.3704 0.74901-3.6738 1.4782zm-94.521 53.32 10.155 6.1885c1.1831 0.72113 2.0972 1.2199 2.7479 1.4933 0.9662 0.40947 1.922 0.68056 2.8615 0.81625 0.939 0.1241 1.979 0.0829 3.1257-0.1252 1.1563-0.21403 2.1847-0.57304 3.0856-1.0772 2.0414-1.1422 2.7333-2.6116 2.0696-4.4052l2.4076 1.4672 2.3116-1.2935-16.39-9.9882-2.5876 1.4478 8.7845 5.3534c1.3992 0.85273 2.3256 1.5852 2.7788 2.1976 0.4526 0.60073 0.5516 1.2212 0.3033 1.8653-0.2587 0.63779-0.773 1.1758-1.5494 1.6101-0.7763 0.43436-1.6337 0.67357-2.5724 0.71774-0.9489 0.038-1.8701-0.12031-2.7636-0.47433-0.6095-0.2482-1.6367-0.81605-3.0873-1.7002l-9.0932-5.5414-2.5877 1.4478zm47.542-24.364c1.3131-0.73462 2.9138-1.0049 4.808-0.81395 1.226 0.1198 2.5889 0.56955 4.0827 1.3453l-8.522 4.7683c-1.3438-0.91987-2.0431-1.8635-2.092-2.8345-0.039-0.97622 0.5349-1.8003 1.7233-2.4652zm64.98-36.336c1.1788-0.65958 2.6983-0.89639 4.5529-0.70724 1.8544 0.18905 3.9031 0.96704 6.146 2.334 2.0372 1.2414 3.1511 2.3886 3.3536 3.4419 0.2019 1.0416-0.2627 1.8788-1.3936 2.5116-1.1213 0.6273-2.6076 0.85522-4.471 0.68316-1.8633-0.17207-3.8476-0.89959-5.9464-2.1787-2.171-1.323-3.3741-2.5043-3.6158-3.5478-0.232-1.0489 0.2242-1.8934 1.3743-2.5369zm-6.1685 10.74 1.0186 0.62081c1.2244 0.74611 2.0084 1.3898 2.3582 1.9278 0.4486 0.69905 0.5212 1.4065 0.2182 2.1293-0.3134 0.71653-0.9681 1.3571-1.9648 1.9148-1.0064 0.56306-2.02 0.84164-3.0409 0.83554-1.0114-0.011-1.8875-0.24281-2.6283-0.69425-0.4836-0.29467-0.8012-0.6317-0.9526-1.004-0.1616-0.37861-0.1247-0.75041 0.1103-1.1225 0.235-0.3721 0.8051-0.90748 1.7043-1.603 1.5903-1.2266 2.6494-2.228 3.177-3.0044zm-160.94 139.16c-2.0989 1.1744-3.4932 2.4958-4.1774 3.961-0.684 1.4652-0.5005 3.0222 0.5506 4.6711 1.0505 1.6372 2.6764 3.1232 4.8781 4.465 2.2224 1.3543 4.6681 2.3408 7.3312 2.9554 2.6631 0.61471 5.3165 0.74161 7.9601 0.381 2.6428-0.37231 4.9965-1.136 7.0666-2.2943 1.5334-0.85792 2.7322-1.8751 3.6025-3.0476 0.86-1.1788 1.3917-2.5105 1.5892-3.9921l-8.3955-5.1164-8.9116 5.008 2.6544 1.6177 6.1989-3.4685 4.2101 2.5657c-0.028 0.67736-0.3654 1.4914-1.0113 2.4422-0.6562 0.94445-1.5882 1.7545-2.7957 2.4302-1.3896 0.77748-3.0319 1.3116-4.9267 1.602-1.8947 0.29047-3.8498 0.20574-5.8598-0.2572-2.0002-0.46843-4.0057-1.3186-6.0223-2.5476-1.6359-0.99701-2.8821-2.07-3.7446-3.2232-0.4965-0.67227-0.8047-1.3754-0.9183-2.1056-0.104-0.73552 0.1001-1.4872 0.6182-2.2581 0.5078-0.77729 1.4021-1.5206 2.6768-2.2338 1.0637-0.59513 2.2293-1.0164 3.5027-1.2598 1.2631-0.2497 2.4587-0.30536 3.5868-0.16687 1.1281 0.13859 2.4265 0.47053 3.895 0.99582l1.7779-1.8607c-1.887-0.72423-3.6564-1.1774-5.3025-1.3628-1.6462-0.18536-3.3468-0.0899-5.1079 0.28177-1.7617 0.36032-3.4016 0.96524-4.9254 1.8179zm25.223-6.8103c-2.1085 1.1797-3.0626 2.6035-2.8625 4.2715 0.2002 1.668 1.679 3.3422 4.4363 5.0225 2.6648 1.624 5.3928 2.5246 8.1777 2.6983 2.7843 0.16197 5.2899-0.3837 7.5229-1.6331 1.773-0.99212 2.7668-2.0894 2.9813-3.2917 0.2145-1.2024-0.3057-2.4292-1.5611-3.6872l-3.0319 1.2779c0.7798 0.93466 1.1048 1.7511 0.969 2.4526-0.1359 0.70134-0.6811 1.3192-1.6299 1.85-1.2746 0.71314-2.8138 1.0187-4.6236 0.91288-1.8098-0.10581-3.6601-0.68216-5.5564-1.7258l11.386-6.3706c-0.3204-0.20564-0.5644-0.35772-0.729-0.45804-2.7058-1.6491-5.4488-2.5678-8.2346-2.753-2.7856-0.18526-5.2023 0.29136-7.2435 1.4336zm15.727-8.7997c-0.6038 0.33783-0.9745 0.7617-1.112 1.2716-0.128 0.5046 0.095 1.2793 0.6638 2.3203l-2.4879-1.5161-2.3288 1.3031 16.39 9.9882 2.5877-1.4479-8.5807-5.2293c-1.173-0.71473-2.1096-1.4536-2.8097-2.2164-0.4566-0.5023-0.6425-0.98752-0.5522-1.459 0.08-0.47773 0.4028-0.87481 0.9682-1.1913 0.6326-0.35392 1.4688-0.58364 2.5027-0.69305l-1.6892-2.0713c-1.4976 0.14049-2.6796 0.45305-3.5517 0.94106zm11.167-6.2484c-1.0159 0.56845-1.6718 1.224-1.9735 1.9701-0.3117 0.73972-0.3058 1.4917 0.017 2.2489l-2.3026-1.4033-2.3115 1.2935 16.39 9.9882 2.5877-1.4478-8.5006-5.1803c-1.4918-0.90919-2.4978-1.6813-3.012-2.3197-0.5143-0.6383-0.6708-1.2579-0.469-1.8519 0.2114-0.59932 0.6784-1.1011 1.4068-1.5087 0.9584-0.53628 1.9571-0.73422 2.9961-0.59403 1.039 0.14029 2.1758 0.58663 3.4105 1.339l10.649 6.4895 2.5877-1.4478-9.5191-5.8011c-1.6874-1.0283-2.5571-1.9728-2.6092-2.8337-0.062-0.86701 0.4399-1.6027 1.5133-2.2034 0.5941-0.33243 1.264-0.52928 2.0032-0.59413 0.7392-0.065 1.4371 0 2.0938 0.21403 0.6561 0.19815 1.5428 0.6377 2.654 1.3149l10.322 6.2901 2.5704-1.4383-11.248-6.8544c-1.8726-1.1412-3.6639-1.7601-5.3736-1.8497-1.72-0.0959-3.3401 0.28128-4.8543 1.1285-1.9359 1.0832-2.5508 2.5458-1.8447 4.3876-1.2026-0.3855-2.4141-0.52779-3.6466-0.42756-1.223 0.0949-2.4058 0.45853-3.5367 1.0913zm24.122-13.497c-1.313 0.73472-2.2695 1.4984-2.8752 2.2944-0.6161 0.78968-0.8273 1.5549-0.6342 2.2887 0.1828 0.72763 0.7434 1.5084 1.6759 2.3456l2.9005-1.1899c-0.8847-0.86402-1.2718-1.5951-1.1495-2.1928 0.1217-0.60932 0.7941-1.2525 2.0114-1.9336 1.3033-0.72932 2.5993-1.0912 3.8882-1.0788 0.9517 0.01 1.9937 0.36132 3.1255 1.0511 0.1029 0.063 0.3398 0.20914 0.7104 0.44675-0.6167 0.77808-1.8388 1.8346-3.6606 3.1667-0.8918 0.65528-1.5166 1.1708-1.8804 1.5428-0.4842 0.51159-0.8067 1.0432-0.9613 1.5987-0.145 0.55017-0.053 1.124 0.271 1.7246 0.323 0.58893 0.8829 1.1296 1.6854 1.6186 1.3685 0.83394 2.9485 1.2703 4.7343 1.3055 1.7754 0.029 3.5014-0.42936 5.1786-1.3677 1.016-0.56845 1.7878-1.2072 2.3094-1.92 0.5311-0.71813 0.8358-1.6102 0.9196-2.6795 0.8483 0.42747 1.6916 0.73972 2.5362 0.94066l2.7027-1.5122c-0.9535-0.20015-1.8242-0.47303-2.6182-0.82255-0.7948-0.36112-2.4805-1.3302-5.0628-2.904l-3.704-2.2572c-1.2346-0.75241-2.1345-1.2471-2.6941-1.4873-0.9147-0.3781-1.8106-0.61051-2.6878-0.69694-0.8875-0.0929-1.9034-0.015-3.0473 0.24011-1.1439 0.25519-2.3703 0.749-3.6738 1.4783zm17.124-9.5815c-2.118 1.1851-2.8343 2.6418-2.1551 4.3666l-2.3335-1.4221-2.3289 1.3031 16.39 9.9882 2.5876-1.4479-8.9511-5.455c-2.0988-1.2791-3.1259-2.3665-3.0816-3.2693 0.054-0.90818 0.6318-1.6741 1.734-2.2907 0.69-0.38619 1.459-0.61441 2.3064-0.69165 0.8468-0.0889 1.6535-0.021 2.4207 0.21143 0.757 0.22602 1.6983 0.68546 2.8301 1.3752l9.9697 6.0757 2.5876-1.4479-10.075-6.1396c-1.2861-0.78378-2.2374-1.3075-2.8475-1.5675-0.9457-0.39689-1.895-0.66188-2.8546-0.79847-0.9595-0.13669-1.9994-0.0959-3.1255 0.1252-1.1268 0.20954-2.1533 0.56975-3.0734 1.0845zm8.1046-4.1018 22.211 6.767c0.1931 0.24091 0.3426 0.42176 0.4491 0.54247 0.7367 0.87471 1.1654 1.4407 1.2803 1.701 0.1499 0.34923 0.1525 0.68456 0.013 1.0029-0.1392 0.31855-0.4965 0.63859-1.0715 0.96024-0.4217 0.23601-0.9947 0.46034-1.7247 0.67646l2.8986 1.4306c0.8397-0.20533 1.5088-0.44734 2.0071-0.72622 0.8242-0.46114 1.3174-0.98962 1.4794-1.5854 0.1724-0.58953 0.031-1.292-0.4248-2.1074-0.3342-0.60692-1.096-1.6335-2.2734-3.0794l-10.86-13.407-2.5876 1.4478 6.2957 7.648c0.802 0.97044 1.6924 1.9275 2.671 2.8712-1.6531-0.6265-3.2905-1.1897-4.9063-1.6927l-12.669-4.01-2.7889 1.5605zm-73.933 43.604c1.313-0.73462 2.9137-1.0049 4.808-0.81395 1.2261 0.1198 2.589 0.56945 4.0827 1.3453l-8.522 4.7682c-1.3439-0.91977-2.0431-1.8635-2.092-2.8344-0.039-0.97622 0.5349-1.8003 1.7233-2.4652zm60.536-26.562 1.0186 0.62071c1.2243 0.74621 2.0084 1.3899 2.3581 1.9279 0.4487 0.69905 0.5212 1.4065 0.2183 2.1293-0.3134 0.71653-0.9682 1.357-1.9649 1.9148-1.0063 0.56305-2.0199 0.84153-3.0409 0.83554-1.0114-0.011-1.8875-0.24281-2.6283-0.69426-0.4835-0.29476-0.8012-0.6318-0.9526-1.004-0.1615-0.3786-0.1246-0.75041 0.1104-1.1225 0.235-0.37211 0.805-0.90759 1.7042-1.603 1.5904-1.2266 2.6494-2.2281 3.1771-3.0044z"/>
 <path d="m984.94 412.66c-1.1309 0.6328-1.7863 1.264-1.9661 1.8938-0.18051 0.61821-0.0355 1.2129 0.43553 1.7913 0.3528 0.42807 1.0802 0.98073 2.1811 1.6517l1.7408 1.0609-2.2829 1.2774 0.47534 0.28967c-1.4209 0.14748-2.5644 0.44615-3.4046 0.91628-0.60379 0.33783-0.97443 0.76179-1.112 1.2717-0.12796 0.5046 0.0953 1.2792 0.66378 2.3203l-2.4878-1.5161-2.3289 1.3031 16.39 9.9882 2.5877-1.4478-8.5808-5.2293c-1.1729-0.71473-2.1096-1.4536-2.8097-2.2163-0.45653-0.50231-0.64245-0.98752-0.55209-1.459 0.08-0.47772 0.40279-0.87481 0.96821-1.1912 0.63256-0.35392 1.469-0.58364 2.5026-0.69315l-1.5029-1.8434 1.3519 0.82385 2.2829-1.2773 14.229 8.6715 2.5761-1.4415-14.229-8.6715 2.9729-1.6634-2.1606-1.3168-2.9729 1.6635-1.5125-0.92177c-0.98772-0.60193-1.4957-1.1018-1.5299-1.5036-0.0343-0.40178 0.3385-0.82445 1.1244-1.2641 0.47919-0.26819 1.0387-0.52099 1.6781-0.7587l-2.0346-1.6903c-1.0669 0.3805-1.9646 0.77449-2.693 1.1821zm-94.267 53.193 22.625 13.788 2.6911-1.5058-19.26-11.738 25.356 8.327 2.5129-1.406-12.809-14.965 18.933 11.538 2.6911-1.5058-22.625-13.788-3.755 2.101 10.699 12.415c1.0868 1.2561 1.9251 2.2039 2.5086 2.8395-0.95157-0.33344-2.4065-0.82795-4.3584-1.4797l-21.011-6.9697-4.1977 2.3487zm97.985-54.825 3.1977 1.9488 2.5876-1.4479-3.1977-1.9488-2.5876 1.4478zm-39.004 22.423-0.90935 2.4572 4.0558 2.4716-1.8976 1.0618 2.1606 1.3167 1.8976-1.0618 9.4327 5.7484c1.6668 1.0157 2.8648 1.6226 3.6004 1.8245 0.72523 0.19554 1.5093 0.2475 2.3458 0.15238 0.83644-0.0949 1.7212-0.40748 2.6604-0.93296 0.57504-0.32175 1.1442-0.73662 1.7083-1.2444l-2.8246-1.2844c-0.39752 0.30665-0.74033 0.53697-1.0279 0.69784-0.38335 0.21443-0.7443 0.34183-1.0888 0.3783-0.33479 0.031-0.66957 0-0.99174-0.0799-0.31257-0.0899-0.85919-0.3756-1.6514-0.85832l-9.587-5.8425 2.5991-1.4544-2.1606-1.3167-2.5991 1.4542-5.7226-3.4873zm-7.402 10.398c-0.79545 0.44505-1.4298 0.93227-1.9031 1.4616-0.47383 0.51789-0.75273 0.98652-0.83631 1.4061-0.12514 0.55106-0.0261 1.1066 0.28527 1.6661 0.31062 0.54776 0.82811 1.0424 1.5586 1.4875 0.80254 0.48911 1.7253 0.83634 2.7678 1.0348 1.0419 0.18676 2.1142 0.19055 3.2233 0.015 1.1084-0.18725 2.8714-0.65658 5.2834-1.4048 1.7895-0.55626 2.9881-0.85652 3.5896-0.90438 0.86804-0.065 1.613 0.0959 2.2406 0.47812 0.69962 0.42636 1.0211 0.95854 0.97091 1.5999-0.0606 0.6353-0.68509 1.2854-1.8735 1.9504-1.1788 0.65958-2.389 0.99751-3.6368 1.0101-1.2382 0.01-2.4767-0.28597-3.7213-0.8764l-2.1268 1.6951c2.0265 0.89878 3.9963 1.3264 5.9162 1.2865 1.9295-0.045 3.8861-0.62301 5.87-1.733 1.198-0.67027 2.0533-1.4038 2.5596-2.2043 0.49611-0.80676 0.58098-1.5975 0.26653-2.3717-0.31518-0.78578-0.93286-1.4624-1.8588-2.0268-0.94656-0.57684-1.9478-0.94265-2.9977-1.1008-1.05-0.15817-2.101-0.13539-3.1586 0.0719-1.0583 0.19525-2.7651 0.64519-5.1203 1.3496-1.6355 0.48202-2.637 0.76579-2.9985 0.84783-0.64579 0.13309-1.2207 0.16587-1.7299 0.10202-0.49874-0.058-0.92536-0.19425-1.2855-0.41368-0.56585-0.34492-0.80857-0.78638-0.72254-1.3276 0.0861-0.54127 0.72316-1.1479 1.9115-1.8128 1.0063-0.56306 2.0193-0.85313 3.0388-0.87042 1.0291-0.023 2.0231 0.19095 2.9817 0.6408l2.1597-1.6414c-1.2226-0.55477-2.3634-0.90259-3.4223-1.0438-1.0692-0.14748-2.2442-0.0789-3.5251 0.20444-1.2712 0.27828-2.5088 0.7542-3.7068 1.4246zm24.14-13.507c-2.1085 1.1798-3.0626 2.6036-2.8624 4.2716 0.20016 1.668 1.6789 3.3422 4.4363 5.0225 2.6647 1.6239 5.3927 2.5246 8.1777 2.6982 2.7842 0.16197 5.2898-0.3836 7.5228-1.6331 1.773-0.99201 2.7668-2.0892 2.9813-3.2917s-0.30576-2.4291-1.5611-3.6871l-3.0319 1.2779c0.77997 0.93466 1.1049 1.7511 0.96904 2.4525-0.13587 0.70145-0.68106 1.3193-1.6299 1.8501-1.2746 0.71313-2.8138 1.0187-4.6236 0.91288-1.8098-0.10592-3.66-0.68226-5.5564-1.7259l11.386-6.3705c-0.32048-0.20564-0.56444-0.35782-0.72902-0.45804-2.7059-1.6491-5.4488-2.5678-8.2345-2.753-2.7857-0.18525-5.2023 0.29137-7.2437 1.4336zm40.281-22.538c-0.6038 0.33783-0.9745 0.7617-1.1121 1.2716-0.1279 0.5046 0.095 1.2792 0.6638 2.3203l-2.4878-1.5161-2.3288 1.303 16.39 9.9883 2.5876-1.4479-8.5808-5.2293c-1.1729-0.71473-2.1096-1.4536-2.8097-2.2164-0.4565-0.5023-0.6424-0.98752-0.5521-1.459 0.08-0.47773 0.4028-0.87481 0.9683-1.1912 0.6325-0.35392 1.4689-0.58364 2.5025-0.69315l-1.6891-2.0712c-1.4976 0.14039-2.6796 0.45295-3.5517 0.94096zm11.167-6.2484c-1.0159 0.56845-1.6719 1.224-1.9734 1.9701-0.3119 0.73972-0.306 1.4917 0.017 2.2489l-2.3026-1.4033-2.3116 1.2935 16.39 9.9882 2.5876-1.4478-8.5006-5.1803c-1.4918-0.90919-2.4978-1.6813-3.0121-2.3197-0.5143-0.6383-0.6707-1.2579-0.4689-1.8519 0.2114-0.59932 0.6784-1.1012 1.4068-1.5087 0.9584-0.53628 1.9572-0.73412 2.9961-0.59403 1.039 0.14029 2.1758 0.58663 3.4105 1.339l10.649 6.4896 2.5876-1.4479-9.5191-5.8011c-1.6874-1.0283-2.5571-1.9728-2.6093-2.8337-0.062-0.86701 0.44-1.6028 1.5134-2.2034 0.5942-0.33253 1.264-0.52918 2.0032-0.59413 0.7392-0.065 1.437 0 2.0938 0.21403 0.6561 0.19815 1.5428 0.6377 2.654 1.3149l10.322 6.2901 2.5704-1.4383-11.248-6.8544c-1.8725-1.1412-3.6639-1.7601-5.3736-1.8497-1.7201-0.0959-3.3401 0.28128-4.8543 1.1285-1.936 1.0832-2.5508 2.5458-1.8447 4.3877-1.2025-0.3856-2.4141-0.52789-3.6466-0.42766-1.2229 0.0949-2.4058 0.45853-3.5367 1.0913zm24.122-13.497c-1.313 0.73472-2.2693 1.4985-2.8752 2.2944-0.6161 0.78968-0.8273 1.5549-0.6342 2.2887 0.1828 0.72763 0.7434 1.5084 1.676 2.3456l2.9005-1.19c-0.8847-0.86402-1.2718-1.5951-1.1495-2.1928 0.1216-0.60932 0.7941-1.2525 2.0112-1.9336 1.3034-0.72932 2.5994-1.0912 3.8883-1.0787 0.9517 0.01 1.9937 0.36141 3.1255 1.0511 0.1027 0.063 0.3397 0.20924 0.7104 0.44675-0.6167 0.77809-1.8389 1.8348-3.6606 3.1668-0.8918 0.65518-1.5165 1.1707-1.8803 1.5428-0.4843 0.51149-0.8068 1.0431-0.9614 1.5986-0.1451 0.55017-0.053 1.124 0.2709 1.7246 0.3231 0.58893 0.8829 1.1296 1.6855 1.6186 1.3684 0.83394 2.9485 1.2704 4.7342 1.3055 1.7755 0.029 3.5015-0.42936 5.1787-1.3677 1.0159-0.56845 1.7877-1.2072 2.3093-1.92 0.5312-0.71814 0.8358-1.6102 0.9197-2.6794 0.8482 0.42737 1.6916 0.73972 2.5362 0.94056l2.7026-1.5121c-0.9534-0.20025-1.8241-0.47313-2.6182-0.82265-0.7947-0.36112-2.4804-1.3302-5.0628-2.904l-3.704-2.2572c-1.2346-0.75241-2.1345-1.2471-2.694-1.4872-0.9148-0.3782-1.8107-0.61061-2.6879-0.69704-0.8875-0.0929-1.9034-0.015-3.0473 0.24021-1.1438 0.25509-2.3703 0.7489-3.6738 1.4782zm-120.8 68.024 10.155 6.1886c1.1832 0.72103 2.0972 1.2198 2.7479 1.4932 0.9662 0.40948 1.9219 0.68057 2.8616 0.81626 0.93895 0.1241 1.9789 0.0829 3.1256-0.1252 1.1562-0.21403 2.1848-0.57305 3.0857-1.0772 2.0414-1.1422 2.7332-2.6116 2.0696-4.4052l2.4076 1.4672 2.3116-1.2934-16.39-9.9883-2.5876 1.4479 8.7845 5.3534c1.3992 0.85272 2.3256 1.5852 2.7788 2.1977 0.45256 0.60062 0.55159 1.2211 0.30327 1.8652-0.25861 0.6378-0.77298 1.1758-1.5493 1.6101-0.77628 0.43436-1.6337 0.67357-2.5724 0.71773-0.94891 0.038-1.8701-0.1202-2.7635-0.47422-0.60956-0.24831-1.6367-0.81606-3.0874-1.7002l-9.0931-5.5415-2.5876 1.4479zm73.73-41.254 16.39 9.9882 2.5876-1.4478-16.39-9.9883-2.5876 1.4479zm-26.188 16.89c1.313-0.73462 2.9137-1.0049 4.808-0.81406 1.226 0.11981 2.589 0.56955 4.0827 1.3453l-8.522 4.7683c-1.3438-0.91978-2.0432-1.8635-2.0921-2.8344-0.0394-0.97623 0.535-1.8003 1.7234-2.4652zm85.09-40.3 1.0186 0.62071c1.2243 0.74621 2.0084 1.3899 2.3581 1.9279 0.4487 0.69905 0.5212 1.4065 0.2182 2.1293-0.3133 0.71643-0.9681 1.357-1.9648 1.9148-1.0063 0.56305-2.0199 0.84163-3.0409 0.83554-1.0114-0.011-1.8875-0.24281-2.6283-0.69426-0.4835-0.29466-0.8011-0.6318-0.9526-1.004-0.1617-0.3787-0.1249-0.75051 0.1104-1.1225 0.2351-0.37211 0.805-0.90759 1.7043-1.603 1.5905-1.2265 2.6493-2.228 3.177-3.0044zm59.075-11.132c0.527 0.84773 0.7686 1.8912 0.7248 3.1304-0.044 1.2392-0.4241 2.4862-1.1407 3.7411l2.6853 1.6365c0.4861-0.64479 0.9193-1.4429 1.2878-2.3946 0.3779-0.95714 0.5566-1.8028 0.5416-2.5401l17.699 10.786 2.5877-1.4479-22.718-13.844-1.6676 0.93306zm-180.85 101.3 14.528 18.318 2.9614-1.657-4.5349-5.4726 8.8094-4.9291 9.3134 2.7988 3.1742-1.776-31.25-8.9617-3.0016 1.6795zm44.749-25.038 28.22 10.657 2.8464-1.5925-12.768-13.004c-0.53883-0.55247-1.2147-1.2086-2.0334-1.9652 0.39638 0.16307 1.5014 0.57904 3.3158 1.2476l21.675 8.0198 2.6911-1.5057-16.846-17.021-2.8061 1.5701 11.232 10.71c1.4207 1.3699 2.7179 2.5661 3.8796 3.5878-2.8355-1.3359-6.0548-2.6593-9.6516-3.9662l-14.47-5.2895-3.3639 1.8822 11.265 11.557c0.27439 0.27947 1.3555 1.3078 3.2367 3.0816-1.7821-0.79487-3.6226-1.5691-5.5213-2.3229l-18.037-7.2481-2.8636 1.6023zm114.02-63.796 8.1178 4.9471c-1.1192-0.15547-2.2409-0.15567-3.3712 0-1.1407 0.14509-2.177 0.47473-3.097 0.98952-1.2555 0.70254-2.0302 1.5546-2.3362 2.5556-0.306 1.0011-0.05 2.051 0.7794 3.1503 0.8193 1.093 2.0498 2.1364 3.6857 3.1334 1.6771 1.022 3.4448 1.7744 5.297 2.2534 1.8516 0.46733 3.6395 0.63599 5.3755 0.5065 1.7457-0.1349 3.2271-0.54287 4.4443-1.2238 1.8784-1.0511 2.4917-2.3443 1.834-3.8766l2.0681 1.2603 2.3978-1.3416-22.625-13.788-2.5704 1.4382zm-154.95 89.478c1.5502 0.56385 3.6124 1.238 6.1867 2.0227l8.4624 2.5894-7.1419 3.9961-4.3246-5.3377c-0.94139-1.145-2.0004-2.2362-3.1827-3.2705zm22.55-8.5402c-1.0159 0.56835-1.6775 1.2272-1.9791 1.9733-0.31186 0.73972-0.30022 1.4885 0.0231 2.2457l-2.3026-1.4033-2.3174 1.2967 16.39 9.9882 2.5876-1.4478-8.5005-5.1803c-1.4919-0.90918-2.492-1.6846-3.0064-2.3229-0.51429-0.63829-0.67652-1.2547-0.4747-1.8487 0.21143-0.59932 0.68417-1.1044 1.4125-1.5119 0.95841-0.53628 1.9571-0.73432 2.9961-0.59403s2.1758 0.58663 3.4105 1.339l10.649 6.4895 2.5876-1.4479-9.5191-5.801c-1.6873-1.0283-2.5571-1.9728-2.6092-2.8337-0.0624-0.86711 0.43993-1.6028 1.5133-2.2034 0.59419-0.33253 1.264-0.52928 2.0032-0.59413 0.73922-0.065 1.4313 0.01 2.0881 0.21713 0.65608 0.19815 1.5428 0.6378 2.654 1.3149l10.322 6.2902 2.5761-1.4415-11.248-6.8545c-1.8725-1.1411-3.6697-1.7568-5.3794-1.8465-1.72-0.0959-3.3343 0.27808-4.8486 1.1254-1.9359 1.0831-2.5508 2.5458-1.8447 4.3876-1.2025-0.3855-2.4198-0.52469-3.6523-0.42437-1.2229 0.0949-2.4001 0.45534-3.531 1.0881zm59.412-33.243c-2.1084 1.1798-3.0626 2.6036-2.8624 4.2715 0.2001 1.6681 1.6789 3.3422 4.4363 5.0226 2.6647 1.6239 5.3927 2.5246 8.1777 2.6982 2.7843 0.16197 5.2898-0.3836 7.5229-1.6331 1.773-0.99201 2.7667-2.0892 2.9812-3.2917 0.2145-1.2024-0.3-2.4324-1.5553-3.6903l-3.032 1.2779c0.78 0.93466 1.0992 1.7542 0.9633 2.4557-0.1358 0.70145-0.6753 1.316-1.6241 1.8468-1.2746 0.71324-2.8138 1.0188-4.6236 0.91288-1.8098-0.10582-3.6658-0.67897-5.5621-1.7226l11.386-6.3706c-0.3205-0.20564-0.5586-0.36102-0.7231-0.46134-2.706-1.649-5.4546-2.5646-8.2403-2.7497-2.7857-0.18526-5.2023 0.29137-7.2437 1.4336zm15.744-8.8094c-1.3513 0.7561-2.17 1.6352-2.4561 2.6371-0.2765 0.99661-0.014 2.0503 0.7857 3.1541 0.7898 1.0974 1.9696 2.1211 3.5334 3.0742 2.2738 1.3857 4.7955 2.2502 7.5711 2.5974 2.7757 0.34712 5.2101-0.0649 7.309-1.2392 1.6868-0.94376 2.3836-2.1659 2.0843-3.6702 1.8197 1.0985 2.9464 1.8536 3.378 2.2736 0.6961 0.69305 0.9753 1.3786 0.838 2.0568-0.1372 0.67817-0.8077 1.3539-2.0057 2.0243-1.1117 0.62201-2.243 0.95435-3.3996 1.0001-0.8598 0.036-1.762-0.16866-2.7008-0.61751l-2.9142 1.1615c1.7314 1.0998 3.5951 1.6061 5.591 1.5117 2.0062-0.0879 3.9225-0.6434 5.7435-1.6622 1.5334-0.85802 2.5109-1.7658 2.9382-2.7264 0.4369-0.96614 0.3599-1.9092-0.2309-2.8295-0.571-0.91927-2.1324-2.1599-4.6841-3.7149l-14.168-8.634-2.3864 1.3353 1.9755 1.2038c-2.7331-0.29886-5.0006 0.056-6.8024 1.0639zm16.371-9.16c-0.6038 0.33783-0.9745 0.76169-1.112 1.2717-0.128 0.5045 0.095 1.2792 0.6637 2.3202l-2.4878-1.5161-2.3288 1.3031 16.39 9.9882 2.5876-1.4478-8.5808-5.2293c-1.1729-0.71483-2.1095-1.4536-2.8096-2.2164-0.4566-0.50221-0.6368-0.99072-0.5464-1.4622 0.08-0.47772 0.4028-0.8748 0.9682-1.1912 0.6326-0.35392 1.4688-0.58374 2.5026-0.69306l-1.6891-2.0713c-1.4976 0.14039-2.6854 0.45614-3.5575 0.94416zm10.684-5.978c-1.313 0.73462-2.2752 1.5015-2.8809 2.2975-0.6161 0.78967-0.8216 1.5517-0.6285 2.2856 0.1828 0.72752 0.7377 1.5115 1.6703 2.3487l2.9005-1.19c-0.8847-0.86401-1.2661-1.5983-1.1438-2.196 0.1217-0.60922 0.7941-1.2525 2.0113-1.9336 1.3034-0.72922 2.5936-1.0879 3.8825-1.0754 0.9518 0.01 1.9994 0.35812 3.1312 1.0478 0.1029 0.063 0.3328 0.21313 0.7046 0.45004-0.6167 0.77809-1.8331 1.8316-3.6549 3.1635-0.8918 0.65528-1.5165 1.1708-1.8803 1.5429-0.4843 0.5115-0.8068 1.0431-0.9614 1.5986-0.145 0.55016-0.059 1.1272 0.2652 1.7278 0.323 0.58894 0.8887 1.1263 1.6912 1.6154 1.3684 0.83394 2.9486 1.2704 4.7342 1.3055 1.7755 0.029 3.4958-0.42606 5.173-1.3645 1.0159-0.56845 1.7877-1.2071 2.3093-1.92 0.5312-0.71813 0.8416-1.6134 0.9255-2.6826 0.8482 0.42736 1.6915 0.73972 2.5361 0.94056l2.7027-1.5122c-0.9535-0.20014-1.8242-0.47302-2.6182-0.82255-0.7948-0.36111-2.4863-1.327-5.0688-2.9007l-3.7039-2.2572c-1.2347-0.7524-2.129-1.2503-2.6885-1.4904-0.9148-0.3782-1.8106-0.61052-2.6878-0.69695-0.8876-0.0929-1.9092-0.012-3.0531 0.24331-1.1438 0.2552-2.3646 0.74581-3.668 1.4751zm17.119-9.5784c-2.118 1.1852-2.8343 2.6419-2.1551 4.3666l-2.3335-1.4221-2.3289 1.3031 16.39 9.9883 2.5877-1.4478-8.9512-5.455c-2.0989-1.2791-3.1202-2.3698-3.0758-3.2726 0.054-0.90808 0.626-1.6708 1.7282-2.2875 0.69-0.3861 1.4647-0.61751 2.3122-0.69485 0.8468-0.0889 1.6477-0.017 2.4149 0.21473 0.757 0.22592 1.704 0.68216 2.8358 1.3719l9.9697 6.0757 2.5877-1.4479-10.075-6.1396c-1.2861-0.78378-2.2374-1.3074-2.8476-1.5674-0.9456-0.39699-1.895-0.66198-2.8545-0.79857-0.9596-0.13659-2.0053-0.0929-3.1314 0.1284-1.1267 0.20953-2.1533 0.56985-3.0733 1.0846zm-57.605 34.902c1.3129-0.73472 2.9194-1.0082 4.8136-0.81726 1.2261 0.11981 2.5891 0.56945 4.0828 1.3453l-8.5278 4.7715c-1.3438-0.91987-2.0374-1.8668-2.0863-2.8376-0.039-0.97623 0.5293-1.7971 1.7177-2.462zm15.918-8.885c1.1692-0.65418 2.6721-0.90338 4.5149-0.74381 1.8524 0.15418 3.7847 0.84104 5.7909 2.0637 2.0989 1.2791 3.2397 2.4449 3.4224 3.4972 0.1723 1.0461-0.3326 1.9035-1.5209 2.5685-1.198 0.67027-2.6886 0.92697-4.4718 0.77019-1.7831-0.15687-3.7559-0.89079-5.9062-2.2013-1.9755-1.2038-3.0565-2.3332-3.2495-3.3919-0.2033-1.0649 0.2702-1.9191 1.4202-2.5626zm58.958-32.989c1.1788-0.65958 2.6926-0.89319 4.5471-0.70404 1.8544 0.18905 3.9032 0.96703 6.1461 2.334 2.0371 1.2414 3.1568 2.3853 3.3594 3.4386 0.2018 1.0417-0.2627 1.8789-1.3936 2.5116-1.1214 0.6274-2.6135 0.85862-4.4768 0.68645-1.8634-0.17206-3.8476-0.89958-5.9465-2.1787-2.1709-1.323-3.3741-2.5043-3.6157-3.5478-0.232-1.0488 0.2299-1.8966 1.38-2.5401zm-22.563 19.913 1.0186 0.62081c1.2243 0.74611 2.0143 1.3865 2.3639 1.9246 0.4486 0.69905 0.5155 1.4097 0.2125 2.1325-0.3134 0.71654-0.9624 1.3539-1.9591 1.9116-1.0063 0.56306-2.0199 0.84154-3.0409 0.83554-1.0114-0.011-1.8875-0.24281-2.6283-0.69425-0.4835-0.29467-0.807-0.6285-0.9583-1.0008-0.1618-0.3787-0.1192-0.7537 0.1161-1.1257 0.235-0.3721 0.7992-0.90438 1.6985-1.5998 1.5903-1.2266 2.6494-2.228 3.177-3.0044zm-102.43 86.58c-1.8976 1.0618-2.7793 2.3729-2.6451 3.9335 0.1438 1.5552 1.3569 3.0316 3.6513 4.4299 2.2223 1.3543 4.6164 2.1075 7.182 2.2595 2.5657 0.15198 4.7206-0.26 6.4649-1.236 1.0446-0.58444 1.743-1.2904 2.089-2.1214 0.34526-0.84263 0.33428-1.6784-0.0331-2.5071 0.25575 0.14548 0.44977 0.2534 0.57326 0.32864 1.1524 0.70234 2.1519 1.4659 3.0043 2.288 0.85241 0.82195 1.419 1.5392 1.6942 2.155 0.26484 0.60952 0.28488 1.202 0.072 1.7781-0.20322 0.57075-0.69969 1.077-1.4951 1.5221-0.92965 0.52019-1.9743 0.77759-3.1344 0.7652-1.1601-0.012-2.4763-0.34393-3.9423-0.99092l-2.2372 1.5404c1.9907 0.96674 4.0025 1.4624 6.0349 1.4797 2.0221 0.011 3.8571-0.44794 5.5055-1.3702 1.5526-0.86872 2.4595-1.8957 2.7144-3.0847 0.2645-1.1944-0.16796-2.4774-1.2913-3.8454-1.1336-1.3742-3.1488-2.9407-6.0399-4.7025-2.778-1.693-5.1945-2.8184-7.2497-3.3762-2.0559-0.56955-4.0502-0.77659-5.9829-0.62131-1.9231 0.14998-3.564 0.60862-4.9345 1.3755zm16.63-9.3048c-1.8305 1.0242-2.7392 2.1845-2.7199 3.4846 0.0194 1.3001 0.85804 2.452 2.5042 3.4552 1.0906 0.66468 2.2857 1.0904 3.5851 1.2775 1.2994 0.18685 2.6937 0.10672 4.189-0.23681-0.92415 0.93806-1.2399 1.9085-0.9415 2.9081 0.29769 0.98802 1.1852 1.9323 2.6565 2.8289 1.9754 1.2038 4.2639 1.8501 6.8657 1.9458 2.5916 0.0899 4.9273-0.44774 7.007-1.6114 2.0797-1.1636 3.0984-2.5033 3.0561-4.0191-0.042-1.5157-1.0335-2.8614-2.9677-4.0402-1.3993-0.85273-2.9405-1.3976-4.6292-1.6313-1.6792-0.23911-3.3949-0.13299-5.1414 0.31505 0.6228-0.84163 0.8024-1.6396 0.5386-2.3941-0.2644-0.76599-0.92128-1.4689-1.9707-2.1084-1.6462-1.0032-3.595-1.5388-5.8584-1.6074-2.2737-0.0749-4.3334 0.40418-6.1735 1.4338zm33.352-18.661c-2.2235 1.2441-3.1246 2.7585-2.709 4.5465 0.481 2.0521 2.905 4.4121 7.2777 7.0769 3.9097 2.3826 7.399 3.7136 10.468 3.9929 3.0585 0.27308 5.6658-0.19715 7.8221-1.4037 1.2651-0.70784 2.075-1.5362 2.4235-2.4889 0.3486-0.95265 0.1926-1.9575-0.456-3.0137-0.6494-1.0679-1.6809-2.0325-3.1007-2.8978-2.1606-1.3168-4.5257-2.05-7.101-2.1966-2.5759-0.15828-4.7295 0.24331-6.4546 1.2085-0.9871 0.55237-1.6871 1.2326-2.0942 2.0377-0.4069 0.80496-0.4067 1.6925-0.011 2.6617-2.2428-1.3909-3.7499-2.5899-4.5045-3.5989-0.7547-1.0088-1.0407-1.9337-0.864-2.7783 0.1291-0.64949 0.6087-1.2064 1.4329-1.6676 1.0255-0.57375 2.281-0.81686 3.7728-0.72553 0.9156 0.065 2.0337 0.36551 3.3543 0.90139l2.3543-1.5699c-1.9702-0.95424-3.9833-1.4394-6.0451-1.4524-2.0523-0.018-3.9072 0.43985-5.5652 1.3675zm35.112-19.538 22.625 13.788 2.7889-1.5605-22.625-13.788-2.7889 1.5605zm38.556-21.573 28.22 10.657 2.8463-1.5926-12.774-13.007c-0.5388-0.55236-1.2147-1.2085-2.0334-1.9652 0.3964 0.16307 1.5017 0.57895 3.3158 1.2477l21.681 8.0234 2.6911-1.5057-16.846-17.021-2.8061 1.5701 11.232 10.71c1.4207 1.3699 2.7117 2.5622 3.8735 3.5839-2.8356-1.336-6.0487-2.6555-9.6455-3.9624l-14.47-5.2894-3.364 1.8822 11.265 11.557c0.2747 0.27918 1.3493 1.304 3.2305 3.0778-1.7821-0.79487-3.6226-1.5692-5.5212-2.3229l-18.031-7.2443-2.8636 1.6022zm44.651-24.983 22.625 13.788 2.5877-1.4479-22.625-13.788-2.5876 1.4478zm16.348-9.1473 8.1178 4.9471c-1.1192-0.15547-2.2471-0.15947-3.3774-0.01-1.1406 0.14519-2.1707 0.47852-3.0908 0.99331-1.2555 0.70255-2.0364 1.5508-2.3424 2.5518-0.306 1.0011-0.044 2.0548 0.7856 3.1541 0.8194 1.093 2.0498 2.1364 3.6857 3.1333 1.6771 1.0221 3.4386 1.7707 5.2909 2.2497 1.8515 0.46733 3.6455 0.6398 5.3816 0.5103 1.7457-0.13489 3.2271-0.54287 4.4443-1.2238 1.8784-1.0511 2.4917-2.3444 1.834-3.8766l2.0681 1.2603 2.3978-1.3416-22.625-13.788-2.5704 1.4382zm-157.95 88.715 2.673 1.629 10.322-5.7753c0.2921 1.7128 1.0293 3.6094 2.2059 5.6932 1.1759 2.0722 2.7127 4.0506 4.6105 5.9353 1.8978 1.8848 3.7222 3.3775 5.4734 4.4784l2.6567-1.4864c-2.1096-1.4536-3.8522-2.9055-5.2278-4.3488-1.9666-2.0387-3.564-4.1997-4.7924-6.4831-1.2187-2.2887-1.9237-4.2756-2.115-5.9606l-2.1606-1.3167-13.646 7.635zm35.124-19.631 9.5766 8.2224 2.7719-1.1541c-0.2648-0.60952-0.2624-1.2242 0.01-1.8441 0.2594-0.62621 0.8031-1.1709 1.6368-1.6374 1.3418-0.7508 2.8857-1.0758 4.6256-0.97892 1.7495 0.0919 3.4162 0.61651 5.0007 1.5821 1.6668 1.0158 2.573 2.0722 2.7188 3.1692 0.1457 1.0971-0.4044 1.9942-1.6503 2.6914-1.035 0.57914-2.2763 0.86232-3.7241 0.84253-1.4486-0.031-2.9806-0.42496-4.6017-1.1776l-2.473 1.6723c2.076 1.0635 4.2908 1.6066 6.6507 1.6332 2.3695 0.021 4.5154-0.506 6.4322-1.5786 2.3385-1.3084 3.2648-2.8971 2.7847-4.7692-0.3801-1.5312-1.5939-2.9207-3.6413-4.1685-2.1504-1.3104-4.5423-2.0287-7.1758-2.1547-2.6334-0.1261-4.8671 0.32754-6.7072 1.3571-1.3896 0.77748-2.2408 1.8071-2.5594 3.0918l-4.9478-4.3395 8.4127-4.7072-2.6545-1.6177-10.483 5.8655zm-42.883 26.195c0.97755-0.54697 2.142-0.78957 3.4933-0.72782 1.3506 0.05 2.5381 0.38389 3.5567 1.0046 0.97741 0.59563 1.4787 1.2798 1.5156 2.0529 0.0362 0.7615-0.44094 1.423-1.4376 1.9806-1.0255 0.57375-2.1988 0.83334-3.52 0.77879-1.3212-0.054-2.5139-0.40938-3.5839-1.0615-0.94657-0.57685-1.4336-1.2545-1.4609-2.033-0.0274-0.77848 0.4497-1.4423 1.4368-1.9946zm-16.33 9.1516c1.1117-0.6221 2.5318-0.86581 4.2539-0.73492 1.7317 0.12551 3.3921 0.67577 4.9868 1.6476 1.5948 0.97193 2.4565 1.9475 2.5855 2.9335 0.12845 0.97453-0.40614 1.8005-1.6041 2.4708-1.1884 0.66497-2.6377 0.94905-4.3474 0.85932-1.7104-0.10122-3.2858-0.59083-4.7263-1.4686-1.605-0.97813-2.4881-2.0114-2.6434-3.1032-0.15533-1.0917 0.3449-1.961 1.495-2.6044zm102.65-53.158c-1.0159 0.56845-1.6775 1.2272-1.9791 1.9733-0.3119 0.73972-0.3064 1.4847 0.017 2.2419l-2.2965-1.3995-2.3174 1.2966 16.39 9.9883 2.5877-1.4478-8.5067-5.1841c-1.4919-0.90918-2.492-1.6846-3.0064-2.3229-0.5143-0.63829-0.6703-1.2509-0.4685-1.8449 0.2114-0.59932 0.6842-1.1044 1.4126-1.512 0.9584-0.53618 1.957-0.73422 2.996-0.59393 1.0391 0.14029 2.1759 0.58664 3.4105 1.339l10.649 6.4895 2.5877-1.4479-9.5253-5.8048c-1.6873-1.0283-2.5571-1.9728-2.6093-2.8337-0.062-0.86701 0.4461-1.599 1.5195-2.1996 0.5943-0.33253 1.2579-0.53307 1.9971-0.59792 0.7392-0.065 1.4374 0.011 2.0942 0.22092 0.6561 0.19825 1.5367 0.634 2.6479 1.3112l10.328 6.2939 2.5761-1.4415-11.254-6.8582c-1.8725-1.1412-3.6635-1.7531-5.3732-1.8428-1.7201-0.0959-3.3343 0.27818-4.8486 1.1254-1.9359 1.0832-2.5508 2.5458-1.8447 4.3876-1.2024-0.3855-2.4259-0.52838-3.6585-0.42806-1.2229 0.0949-2.3938 0.45903-3.5247 1.0918zm59.027-33.027c-1.313 0.73472-2.2753 1.5016-2.881 2.2976-0.616 0.78967-0.8277 1.5479-0.6346 2.2818 0.1828 0.72753 0.7376 1.5115 1.6702 2.3488l2.9006-1.19c-0.8847-0.86402-1.2599-1.5945-1.1376-2.1922 0.1216-0.60932 0.7879-1.2563 2.005-1.9374 1.3035-0.72922 2.5998-1.0841 3.8887-1.0718 0.9518 0.01 1.9933 0.35442 3.1251 1.0441 0.1028 0.063 0.3389 0.21693 0.7107 0.45385-0.6167 0.77808-1.833 1.8314-3.6548 3.1635-0.8918 0.65529-1.5227 1.167-1.8865 1.5391-0.4843 0.51149-0.8007 1.0469-0.9553 1.6024-0.145 0.55016-0.059 1.1272 0.2652 1.7278 0.3231 0.58894 0.8888 1.1263 1.6913 1.6154 1.3683 0.83385 2.9424 1.2666 4.728 1.3017 1.7755 0.029 3.502-0.42237 5.1792-1.3607 1.0158-0.56845 1.7815-1.2109 2.3031-1.9238 0.5312-0.71813 0.8416-1.6134 0.9254-2.6826 0.8482 0.42737 1.6978 0.74342 2.5424 0.94436l2.7026-1.5122c-0.9534-0.20014-1.8303-0.47682-2.6243-0.82634-0.7948-0.36112-2.4863-1.3268-5.0688-2.9007l-3.7039-2.2572c-1.2347-0.75241-2.129-1.2502-2.6885-1.4904-0.9148-0.37821-1.8107-0.61052-2.6879-0.69695-0.8875-0.0929-1.903-0.01-3.0468 0.2471-1.1439 0.2552-2.3647 0.74581-3.668 1.475zm24.55-11.052c1.1788-0.65958 2.6926-0.8932 4.5471-0.70405 1.8545 0.18905 3.9032 0.96704 6.1461 2.334 2.0372 1.2414 3.163 2.3891 3.3656 3.4424 0.2018 1.0417-0.2627 1.8789-1.3936 2.5116-1.1214 0.6274-2.6196 0.85482-4.483 0.68266-1.8634-0.17207-3.8414-0.89579-5.9403-2.1749-2.1709-1.323-3.3803-2.5081-3.6219-3.5516-0.2319-1.0488 0.2299-1.8966 1.38-2.5401zm-128.75 74.659c1.1788-0.65948 2.6091-0.93056 4.2908-0.81316 1.6714 0.11111 3.2831 0.64289 4.847 1.5959 1.6256 0.99072 2.5187 1.9943 2.6794 3.0109 0.1607 1.0165-0.3052 1.8304-1.3978 2.4418-0.7475 0.41827-1.685 0.67826-2.8182 0.78308-1.1434 0.0989-2.347-0.01-3.6049-0.32824-1.2483-0.32375-2.348-0.77889-3.3048-1.3619-1.461-0.8904-2.2315-1.8328-2.312-2.8341-0.091-1.0075 0.4513-1.84 1.6205-2.4943zm-31.824 19.156c1.2459-0.69715 2.7213-1.0079 4.4201-0.93616 1.7083 0.066 3.2253 0.507 4.5628 1.322 1.317 0.80257 2.003 1.6912 2.0519 2.662 0.049 0.97093-0.545 1.7987-1.7813 2.4904-0.7955 0.44515-1.7386 0.74191-2.8299 0.8835-1.1016 0.13529-2.1972 0.0749-3.2926-0.17826-1.0858-0.25839-2.0279-0.6308-2.8202-1.1136-1.2964-0.79007-1.9818-1.6694-2.0506-2.6411-0.0592-0.97713 0.52267-1.8078 1.7398-2.4888zm147.85-79.404 1.0186 0.62071c1.2244 0.74611 2.0143 1.3865 2.364 1.9246 0.4486 0.69904 0.5216 1.4136 0.2186 2.1363-0.3133 0.71643-0.9685 1.3501-1.9653 1.9078-1.0062 0.56305-2.0199 0.84153-3.0409 0.83554-1.0114-0.011-1.8874-0.24281-2.6282-0.69425-0.4836-0.29467-0.8009-0.62471-0.9522-0.99702-0.1617-0.3787-0.1253-0.7575 0.1099-1.1295 0.235-0.37211 0.7993-0.90429 1.6985-1.5998 1.5904-1.2266 2.6494-2.228 3.177-3.0043z"/>
 <rect transform="matrix(.86491 -.50193 .84853 .52915 0 0)" x="84.875" y="1231.2" width="4.0705" height="64.028"/>
 <rect transform="matrix(.86491 -.50193 .84853 .52915 0 0)" x="93.016" y="1231.2" width="4.0705" height="64.028"/>
 <rect transform="matrix(.86491 -.50193 .84853 .52915 0 0)" x="101.16" y="1231.2" width="4.0705" height="56.496"/>
 <rect transform="matrix(.86491 -.50193 .84853 .52915 0 0)" x="117.44" y="1231.2" width="8.1409" height="56.496"/>
 <rect transform="matrix(.86491 -.50193 .84853 .52915 0 0)" x="133.72" y="1231.2" width="8.1409" height="56.496"/>
 <rect transform="matrix(.86491 -.50193 .84853 .52915 0 0)" x="150" y="1231.2" width="4.0705" height="56.496"/>
 <rect transform="matrix(.86491 -.50193 .84853 .52915 0 0)" x="162.21" y="1231.2" width="4.0705" height="56.496"/>
 <rect transform="matrix(.86491 -.50193 .84853 .52915 0 0)" x="174.43" y="1231.2" width="8.1409" height="56.496"/>
 <rect transform="matrix(.86491 -.50193 .84853 .52915 0 0)" x="186.64" y="1231.2" width="16.282" height="56.496"/>
 <rect transform="matrix(.86491 -.50193 .84853 .52915 0 0)" x="206.99" y="1231.2" width="4.0705" height="56.496"/>
 <rect transform="matrix(.86491 -.50193 .84853 .52915 0 0)" x="215.13" y="1231.2" width="4.0705" height="64.028"/>
 <rect transform="matrix(.86491 -.50193 .84853 .52915 0 0)" x="223.27" y="1231.2" width="4.0705" height="64.028"/>
 <rect transform="matrix(.86491 -.50193 .84853 .52915 0 0)" x="231.41" y="1231.2" width="4.0705" height="56.496"/>
 <rect transform="matrix(.86491 -.50193 .84853 .52915 0 0)" x="239.55" y="1231.2" width="12.211" height="56.496"/>
 <rect transform="matrix(.86491 -.50193 .84853 .52915 0 0)" x="259.91" y="1231.2" width="4.0705" height="56.496"/>
 <rect transform="matrix(.86491 -.50193 .84853 .52915 0 0)" x="272.12" y="1231.2" width="12.211" height="56.496"/>
 <rect transform="matrix(.86491 -.50193 .84853 .52915 0 0)" x="288.4" y="1231.2" width="4.0705" height="56.496"/>
 <rect transform="matrix(.86491 -.50193 .84853 .52915 0 0)" x="296.54" y="1231.2" width="4.0705" height="56.496"/>
 <rect transform="matrix(.86491 -.50193 .84853 .52915 0 0)" x="316.89" y="1231.2" width="4.0705" height="56.496"/>
 <rect transform="matrix(.86491 -.50193 .84853 .52915 0 0)" x="337.24" y="1231.2" width="4.0705" height="56.496"/>
 <rect transform="matrix(.86491 -.50193 .84853 .52915 0 0)" x="345.39" y="1231.2" width="4.0705" height="64.028"/>
 <rect transform="matrix(.86491 -.50193 .84853 .52915 0 0)" x="353.53" y="1231.2" width="4.0705" height="64.028"/>
 <text transform="matrix(1.3528 -.78506 .61401 .3829 0 0)" x="140.14803" y="1802.9344" fill="#000000" font-size="23.422px" text-align="center" text-anchor="middle">4123   4563</text>
 <rect transform="matrix(.87795 -.47876 .85987 .51052 0 0)" x="539.4" y="917.77" width="122.76" height="157.21" fill="#fff"/>
 <rect transform="matrix(.87795 -.47876 .85987 .51052 0 0)" x="556.33" y="939.46" width="4.2332" height="5.421"/>
 <rect transform="matrix(.87795 -.47876 .85987 .51052 0 0)" x="560.57" y="939.46" width="4.2332" height="5.421"/>
 <rect transform="matrix(.87795 -.47876 .85987 .51052 0 0)" x="564.8" y="939.46" width="4.2332" height="5.421"/>
 <rect transform="matrix(.87795 -.47876 .85987 .51052 0 0)" x="569.03" y="939.46" width="4.2332" height="5.421"/>
 <rect transform="matrix(.87795 -.47876 .85987 .51052 0 0)" x="573.27" y="939.46" width="4.2332" height="5.421"/>
 <rect transform="matrix(.87795 -.47876 .85987 .51052 0 0)" x="577.5" y="939.46" width="4.2332" height="5.421"/>
 <rect transform="matrix(.87795 -.47876 .85987 .51052 0 0)" x="581.73" y="939.46" width="4.2332" height="5.421"/>
 <rect transform="matrix(.87795 -.47876 .85987 .51052 0 0)" x="598.67" y="939.46" width="4.2332" height="5.421"/>
 <rect transform="matrix(.87795 -.47876 .85987 .51052 0 0)" x="602.9" y="939.46" width="4.2332" height="5.421"/>
 <rect transform="matrix(.87795 -.47876 .85987 .51052 0 0)" x="607.13" y="939.46" width="4.2332" height="5.421"/>
 <rect transform="matrix(.87795 -.47876 .85987 .51052 0 0)" x="615.6" y="939.46" width="4.2332" height="5.421"/>
 <rect transform="matrix(.87795 -.47876 .85987 .51052 0 0)" x="619.83" y="939.46" width="4.2332" height="5.421"/>
 <rect transform="matrix(.87795 -.47876 .85987 .51052 0 0)" x="624.07" y="939.46" width="4.2332" height="5.421"/>
 <rect transform="matrix(.87795 -.47876 .85987 .51052 0 0)" x="628.3" y="939.46" width="4.2332" height="5.421"/>
 <rect transform="matrix(.87795 -.47876 .85987 .51052 0 0)" x="632.53" y="939.46" width="4.2332" height="5.421"/>
 <rect transform="matrix(.87795 -.47876 .85987 .51052 0 0)" x="636.77" y="939.46" width="4.2332" height="5.421"/>
 <rect transform="matrix(.87795 -.47876 .85987 .51052 0 0)" x="641" y="939.46" width="4.2332" height="5.421"/>
 <rect transform="matrix(.87795 -.47876 .85987 .51052 0 0)" x="556.33" y="944.88" width="4.2332" height="5.421"/>
 <rect transform="matrix(.87795 -.47876 .85987 .51052 0 0)" x="581.73" y="944.88" width="4.2332" height="5.421"/>
 <rect transform="matrix(.87795 -.47876 .85987 .51052 0 0)" x="590.2" y="944.88" width="4.2332" height="5.421"/>
 <rect transform="matrix(.87795 -.47876 .85987 .51052 0 0)" x="594.43" y="944.88" width="4.2332" height="5.421"/>
 <rect transform="matrix(.87795 -.47876 .85987 .51052 0 0)" x="598.67" y="944.88" width="4.2332" height="5.421"/>
 <rect transform="matrix(.87795 -.47876 .85987 .51052 0 0)" x="607.13" y="944.88" width="4.2332" height="5.421"/>
 <rect transform="matrix(.87795 -.47876 .85987 .51052 0 0)" x="615.6" y="944.88" width="4.2332" height="5.421"/>
 <rect transform="matrix(.87795 -.47876 .85987 .51052 0 0)" x="641" y="944.88" width="4.2332" height="5.421"/>
 <rect transform="matrix(.87795 -.47876 .85987 .51052 0 0)" x="556.33" y="950.3" width="4.2332" height="5.421"/>
 <rect transform="matrix(.87795 -.47876 .85987 .51052 0 0)" x="564.8" y="950.3" width="4.2332" height="5.421"/>
 <rect transform="matrix(.87795 -.47876 .85987 .51052 0 0)" x="569.03" y="950.3" width="4.2332" height="5.421"/>
 <rect transform="matrix(.87795 -.47876 .85987 .51052 0 0)" x="573.27" y="950.3" width="4.2332" height="5.421"/>
 <rect transform="matrix(.87795 -.47876 .85987 .51052 0 0)" x="581.73" y="950.3" width="4.2332" height="5.421"/>
 <rect transform="matrix(.87795 -.47876 .85987 .51052 0 0)" x="598.67" y="950.3" width="4.2332" height="5.421"/>
 <rect transform="matrix(.87795 -.47876 .85987 .51052 0 0)" x="602.9" y="950.3" width="4.2332" height="5.421"/>
 <rect transform="matrix(.87795 -.47876 .85987 .51052 0 0)" x="607.13" y="950.3" width="4.2332" height="5.421"/>
 <rect transform="matrix(.87795 -.47876 .85987 .51052 0 0)" x="615.6" y="950.3" width="4.2332" height="5.421"/>
 <rect transform="matrix(.87795 -.47876 .85987 .51052 0 0)" x="624.07" y="950.3" width="4.2332" height="5.421"/>
 <rect transform="matrix(.87795 -.47876 .85987 .51052 0 0)" x="628.3" y="950.3" width="4.2332" height="5.421"/>
 <rect transform="matrix(.87795 -.47876 .85987 .51052 0 0)" x="632.53" y="950.3" width="4.2332" height="5.421"/>
 <rect transform="matrix(.87795 -.47876 .85987 .51052 0 0)" x="641" y="950.3" width="4.2332" height="5.421"/>
 <rect transform="matrix(.87795 -.47876 .85987 .51052 0 0)" x="556.33" y="955.72" width="4.2332" height="5.421"/>
 <rect transform="matrix(.87795 -.47876 .85987 .51052 0 0)" x="564.8" y="955.72" width="4.2332" height="5.421"/>
 <rect transform="matrix(.87795 -.47876 .85987 .51052 0 0)" x="569.03" y="955.72" width="4.2332" height="5.421"/>
 <rect transform="matrix(.87795 -.47876 .85987 .51052 0 0)" x="573.27" y="955.72" width="4.2332" height="5.421"/>
 <rect transform="matrix(.87795 -.47876 .85987 .51052 0 0)" x="581.73" y="955.72" width="4.2332" height="5.421"/>
 <rect transform="matrix(.87795 -.47876 .85987 .51052 0 0)" x="590.2" y="955.72" width="4.2332" height="5.421"/>
 <rect transform="matrix(.87795 -.47876 .85987 .51052 0 0)" x="594.43" y="955.72" width="4.2332" height="5.421"/>
 <rect transform="matrix(.87795 -.47876 .85987 .51052 0 0)" x="607.13" y="955.72" width="4.2332" height="5.421"/>
 <rect transform="matrix(.87795 -.47876 .85987 .51052 0 0)" x="615.6" y="955.72" width="4.2332" height="5.421"/>
 <rect transform="matrix(.87795 -.47876 .85987 .51052 0 0)" x="624.07" y="955.72" width="4.2332" height="5.421"/>
 <rect transform="matrix(.87795 -.47876 .85987 .51052 0 0)" x="628.3" y="955.72" width="4.2332" height="5.421"/>
 <rect transform="matrix(.87795 -.47876 .85987 .51052 0 0)" x="632.53" y="955.72" width="4.2332" height="5.421"/>
 <rect transform="matrix(.87795 -.47876 .85987 .51052 0 0)" x="641" y="955.72" width="4.2332" height="5.421"/>
 <rect transform="matrix(.87795 -.47876 .85987 .51052 0 0)" x="556.33" y="961.14" width="4.2332" height="5.421"/>
 <rect transform="matrix(.87795 -.47876 .85987 .51052 0 0)" x="564.8" y="961.14" width="4.2332" height="5.421"/>
 <rect transform="matrix(.87795 -.47876 .85987 .51052 0 0)" x="569.03" y="961.14" width="4.2332" height="5.421"/>
 <rect transform="matrix(.87795 -.47876 .85987 .51052 0 0)" x="573.27" y="961.14" width="4.2332" height="5.421"/>
 <rect transform="matrix(.87795 -.47876 .85987 .51052 0 0)" x="581.73" y="961.14" width="4.2332" height="5.421"/>
 <rect transform="matrix(.87795 -.47876 .85987 .51052 0 0)" x="594.43" y="961.14" width="4.2332" height="5.421"/>
 <rect transform="matrix(.87795 -.47876 .85987 .51052 0 0)" x="607.13" y="961.14" width="4.2332" height="5.421"/>
 <rect transform="matrix(.87795 -.47876 .85987 .51052 0 0)" x="615.6" y="961.14" width="4.2332" height="5.421"/>
 <rect transform="matrix(.87795 -.47876 .85987 .51052 0 0)" x="624.07" y="961.14" width="4.2332" height="5.421"/>
 <rect transform="matrix(.87795 -.47876 .85987 .51052 0 0)" x="628.3" y="961.14" width="4.2332" height="5.421"/>
 <rect transform="matrix(.87795 -.47876 .85987 .51052 0 0)" x="632.53" y="961.14" width="4.2332" height="5.421"/>
 <rect transform="matrix(.87795 -.47876 .85987 .51052 0 0)" x="641" y="961.14" width="4.2332" height="5.421"/>
 <rect transform="matrix(.87795 -.47876 .85987 .51052 0 0)" x="556.33" y="966.56" width="4.2332" height="5.421"/>
 <rect transform="matrix(.87795 -.47876 .85987 .51052 0 0)" x="581.73" y="966.56" width="4.2332" height="5.421"/>
 <rect transform="matrix(.87795 -.47876 .85987 .51052 0 0)" x="590.2" y="966.56" width="4.2332" height="5.421"/>
 <rect transform="matrix(.87795 -.47876 .85987 .51052 0 0)" x="602.9" y="966.56" width="4.2332" height="5.421"/>
 <rect transform="matrix(.87795 -.47876 .85987 .51052 0 0)" x="615.6" y="966.56" width="4.2332" height="5.421"/>
 <rect transform="matrix(.87795 -.47876 .85987 .51052 0 0)" x="641" y="966.56" width="4.2332" height="5.421"/>
 <rect transform="matrix(.87795 -.47876 .85987 .51052 0 0)" x="556.33" y="971.98" width="4.2332" height="5.421"/>
 <rect transform="matrix(.87795 -.47876 .85987 .51052 0 0)" x="560.57" y="971.98" width="4.2332" height="5.421"/>
 <rect transform="matrix(.87795 -.47876 .85987 .51052 0 0)" x="564.8" y="971.98" width="4.2332" height="5.421"/>
 <rect transform="matrix(.87795 -.47876 .85987 .51052 0 0)" x="569.03" y="971.98" width="4.2332" height="5.421"/>
 <rect transform="matrix(.87795 -.47876 .85987 .51052 0 0)" x="573.27" y="971.98" width="4.2332" height="5.421"/>
 <rect transform="matrix(.87795 -.47876 .85987 .51052 0 0)" x="577.5" y="971.98" width="4.2332" height="5.421"/>
 <rect transform="matrix(.87795 -.47876 .85987 .51052 0 0)" x="581.73" y="971.98" width="4.2332" height="5.421"/>
 <rect transform="matrix(.87795 -.47876 .85987 .51052 0 0)" x="590.2" y="971.98" width="4.2332" height="5.421"/>
 <rect transform="matrix(.87795 -.47876 .85987 .51052 0 0)" x="598.67" y="971.98" width="4.2332" height="5.421"/>
 <rect transform="matrix(.87795 -.47876 .85987 .51052 0 0)" x="607.13" y="971.98" width="4.2332" height="5.421"/>
 <rect transform="matrix(.87795 -.47876 .85987 .51052 0 0)" x="615.6" y="971.98" width="4.2332" height="5.421"/>
 <rect transform="matrix(.87795 -.47876 .85987 .51052 0 0)" x="619.83" y="971.98" width="4.2332" height="5.421"/>
 <rect transform="matrix(.87795 -.47876 .85987 .51052 0 0)" x="624.07" y="971.98" width="4.2332" height="5.421"/>
 <rect transform="matrix(.87795 -.47876 .85987 .51052 0 0)" x="628.3" y="971.98" width="4.2332" height="5.421"/>
 <rect transform="matrix(.87795 -.47876 .85987 .51052 0 0)" x="632.53" y="971.98" width="4.2332" height="5.421"/>
 <rect transform="matrix(.87795 -.47876 .85987 .51052 0 0)" x="636.77" y="971.98" width="4.2332" height="5.421"/>
 <rect transform="matrix(.87795 -.47876 .85987 .51052 0 0)" x="641" y="971.98" width="4.2332" height="5.421"/>
 <rect transform="matrix(.87795 -.47876 .85987 .51052 0 0)" x="594.43" y="977.4" width="4.2332" height="5.421"/>
 <rect transform="matrix(.87795 -.47876 .85987 .51052 0 0)" x="556.33" y="982.83" width="4.2332" height="5.421"/>
 <rect transform="matrix(.87795 -.47876 .85987 .51052 0 0)" x="560.57" y="982.83" width="4.2332" height="5.421"/>
 <rect transform="matrix(.87795 -.47876 .85987 .51052 0 0)" x="564.8" y="982.83" width="4.2332" height="5.421"/>
 <rect transform="matrix(.87795 -.47876 .85987 .51052 0 0)" x="569.03" y="982.83" width="4.2332" height="5.421"/>
 <rect transform="matrix(.87795 -.47876 .85987 .51052 0 0)" x="573.27" y="982.83" width="4.2332" height="5.421"/>
 <rect transform="matrix(.87795 -.47876 .85987 .51052 0 0)" x="581.73" y="982.83" width="4.2332" height="5.421"/>
 <rect transform="matrix(.87795 -.47876 .85987 .51052 0 0)" x="585.97" y="982.83" width="4.2332" height="5.421"/>
 <rect transform="matrix(.87795 -.47876 .85987 .51052 0 0)" x="590.2" y="982.83" width="4.2332" height="5.421"/>
 <rect transform="matrix(.87795 -.47876 .85987 .51052 0 0)" x="602.9" y="982.83" width="4.2332" height="5.421"/>
 <rect transform="matrix(.87795 -.47876 .85987 .51052 0 0)" x="611.37" y="982.83" width="4.2332" height="5.421"/>
 <rect transform="matrix(.87795 -.47876 .85987 .51052 0 0)" x="619.83" y="982.83" width="4.2332" height="5.421"/>
 <rect transform="matrix(.87795 -.47876 .85987 .51052 0 0)" x="628.3" y="982.83" width="4.2332" height="5.421"/>
 <rect transform="matrix(.87795 -.47876 .85987 .51052 0 0)" x="636.77" y="982.83" width="4.2332" height="5.421"/>
 <rect transform="matrix(.87795 -.47876 .85987 .51052 0 0)" x="560.57" y="988.25" width="4.2332" height="5.421"/>
 <rect transform="matrix(.87795 -.47876 .85987 .51052 0 0)" x="573.27" y="988.25" width="4.2332" height="5.421"/>
 <rect transform="matrix(.87795 -.47876 .85987 .51052 0 0)" x="577.5" y="988.25" width="4.2332" height="5.421"/>
 <rect transform="matrix(.87795 -.47876 .85987 .51052 0 0)" x="585.97" y="988.25" width="4.2332" height="5.421"/>
 <rect transform="matrix(.87795 -.47876 .85987 .51052 0 0)" x="607.13" y="988.25" width="4.2332" height="5.421"/>
 <rect transform="matrix(.87795 -.47876 .85987 .51052 0 0)" x="619.83" y="988.25" width="4.2332" height="5.421"/>
 <rect transform="matrix(.87795 -.47876 .85987 .51052 0 0)" x="624.07" y="988.25" width="4.2332" height="5.421"/>
 <rect transform="matrix(.87795 -.47876 .85987 .51052 0 0)" x="641" y="988.25" width="4.2332" height="5.421"/>
 <rect transform="matrix(.87795 -.47876 .85987 .51052 0 0)" x="569.03" y="993.67" width="4.2332" height="5.421"/>
 <rect transform="matrix(.87795 -.47876 .85987 .51052 0 0)" x="573.27" y="993.67" width="4.2332" height="5.421"/>
 <rect transform="matrix(.87795 -.47876 .85987 .51052 0 0)" x="581.73" y="993.67" width="4.2332" height="5.421"/>
 <rect transform="matrix(.87795 -.47876 .85987 .51052 0 0)" x="594.43" y="993.67" width="4.2332" height="5.421"/>
 <rect transform="matrix(.87795 -.47876 .85987 .51052 0 0)" x="598.67" y="993.67" width="4.2332" height="5.421"/>
 <rect transform="matrix(.87795 -.47876 .85987 .51052 0 0)" x="607.13" y="993.67" width="4.2332" height="5.421"/>
 <rect transform="matrix(.87795 -.47876 .85987 .51052 0 0)" x="619.83" y="993.67" width="4.2332" height="5.421"/>
 <rect transform="matrix(.87795 -.47876 .85987 .51052 0 0)" x="628.3" y="993.67" width="4.2332" height="5.421"/>
 <rect transform="matrix(.87795 -.47876 .85987 .51052 0 0)" x="632.53" y="993.67" width="4.2332" height="5.421"/>
 <rect transform="matrix(.87795 -.47876 .85987 .51052 0 0)" x="636.77" y="993.67" width="4.2332" height="5.421"/>
 <rect transform="matrix(.87795 -.47876 .85987 .51052 0 0)" x="569.03" y="999.09" width="4.2332" height="5.421"/>
 <rect transform="matrix(.87795 -.47876 .85987 .51052 0 0)" x="577.5" y="999.09" width="4.2332" height="5.421"/>
 <rect transform="matrix(.87795 -.47876 .85987 .51052 0 0)" x="590.2" y="999.09" width="4.2332" height="5.421"/>
 <rect transform="matrix(.87795 -.47876 .85987 .51052 0 0)" x="594.43" y="999.09" width="4.2332" height="5.421"/>
 <rect transform="matrix(.87795 -.47876 .85987 .51052 0 0)" x="598.67" y="999.09" width="4.2332" height="5.421"/>
 <rect transform="matrix(.87795 -.47876 .85987 .51052 0 0)" x="602.9" y="999.09" width="4.2332" height="5.421"/>
 <rect transform="matrix(.87795 -.47876 .85987 .51052 0 0)" x="611.37" y="999.09" width="4.2332" height="5.421"/>
 <rect transform="matrix(.87795 -.47876 .85987 .51052 0 0)" x="619.83" y="999.09" width="4.2332" height="5.421"/>
 <rect transform="matrix(.87795 -.47876 .85987 .51052 0 0)" x="628.3" y="999.09" width="4.2332" height="5.421"/>
 <rect transform="matrix(.87795 -.47876 .85987 .51052 0 0)" x="632.53" y="999.09" width="4.2332" height="5.421"/>
 <rect transform="matrix(.87795 -.47876 .85987 .51052 0 0)" x="636.77" y="999.09" width="4.2332" height="5.421"/>
 <rect transform="matrix(.87795 -.47876 .85987 .51052 0 0)" x="564.8" y="1004.5" width="4.2332" height="5.421"/>
 <rect transform="matrix(.87795 -.47876 .85987 .51052 0 0)" x="569.03" y="1004.5" width="4.2332" height="5.421"/>
 <rect transform="matrix(.87795 -.47876 .85987 .51052 0 0)" x="573.27" y="1004.5" width="4.2332" height="5.421"/>
 <rect transform="matrix(.87795 -.47876 .85987 .51052 0 0)" x="581.73" y="1004.5" width="4.2332" height="5.421"/>
 <rect transform="matrix(.87795 -.47876 .85987 .51052 0 0)" x="590.2" y="1004.5" width="4.2332" height="5.421"/>
 <rect transform="matrix(.87795 -.47876 .85987 .51052 0 0)" x="594.43" y="1004.5" width="4.2332" height="5.421"/>
 <rect transform="matrix(.87795 -.47876 .85987 .51052 0 0)" x="607.13" y="1004.5" width="4.2332" height="5.421"/>
 <rect transform="matrix(.87795 -.47876 .85987 .51052 0 0)" x="624.07" y="1004.5" width="4.2332" height="5.421"/>
 <rect transform="matrix(.87795 -.47876 .85987 .51052 0 0)" x="636.77" y="1004.5" width="4.2332" height="5.421"/>
 <rect transform="matrix(.87795 -.47876 .85987 .51052 0 0)" x="641" y="1004.5" width="4.2332" height="5.421"/>
 <rect transform="matrix(.87795 -.47876 .85987 .51052 0 0)" x="590.2" y="1009.9" width="4.2332" height="5.421"/>
 <rect transform="matrix(.87795 -.47876 .85987 .51052 0 0)" x="594.43" y="1009.9" width="4.2332" height="5.421"/>
 <rect transform="matrix(.87795 -.47876 .85987 .51052 0 0)" x="598.67" y="1009.9" width="4.2332" height="5.421"/>
 <rect transform="matrix(.87795 -.47876 .85987 .51052 0 0)" x="602.9" y="1009.9" width="4.2332" height="5.421"/>
 <rect transform="matrix(.87795 -.47876 .85987 .51052 0 0)" x="611.37" y="1009.9" width="4.2332" height="5.421"/>
 <rect transform="matrix(.87795 -.47876 .85987 .51052 0 0)" x="619.83" y="1009.9" width="4.2332" height="5.421"/>
 <rect transform="matrix(.87795 -.47876 .85987 .51052 0 0)" x="624.07" y="1009.9" width="4.2332" height="5.421"/>
 <rect transform="matrix(.87795 -.47876 .85987 .51052 0 0)" x="632.53" y="1009.9" width="4.2332" height="5.421"/>
 <rect transform="matrix(.87795 -.47876 .85987 .51052 0 0)" x="556.33" y="1015.4" width="4.2332" height="5.421"/>
 <rect transform="matrix(.87795 -.47876 .85987 .51052 0 0)" x="560.57" y="1015.4" width="4.2332" height="5.421"/>
 <rect transform="matrix(.87795 -.47876 .85987 .51052 0 0)" x="564.8" y="1015.4" width="4.2332" height="5.421"/>
 <rect transform="matrix(.87795 -.47876 .85987 .51052 0 0)" x="569.03" y="1015.4" width="4.2332" height="5.421"/>
 <rect transform="matrix(.87795 -.47876 .85987 .51052 0 0)" x="573.27" y="1015.4" width="4.2332" height="5.421"/>
 <rect transform="matrix(.87795 -.47876 .85987 .51052 0 0)" x="577.5" y="1015.4" width="4.2332" height="5.421"/>
 <rect transform="matrix(.87795 -.47876 .85987 .51052 0 0)" x="581.73" y="1015.4" width="4.2332" height="5.421"/>
 <rect transform="matrix(.87795 -.47876 .85987 .51052 0 0)" x="590.2" y="1015.4" width="4.2332" height="5.421"/>
 <rect transform="matrix(.87795 -.47876 .85987 .51052 0 0)" x="602.9" y="1015.4" width="4.2332" height="5.421"/>
 <rect transform="matrix(.87795 -.47876 .85987 .51052 0 0)" x="607.13" y="1015.4" width="4.2332" height="5.421"/>
 <rect transform="matrix(.87795 -.47876 .85987 .51052 0 0)" x="615.6" y="1015.4" width="4.2332" height="5.421"/>
 <rect transform="matrix(.87795 -.47876 .85987 .51052 0 0)" x="628.3" y="1015.4" width="4.2332" height="5.421"/>
 <rect transform="matrix(.87795 -.47876 .85987 .51052 0 0)" x="636.77" y="1015.4" width="4.2332" height="5.421"/>
 <rect transform="matrix(.87795 -.47876 .85987 .51052 0 0)" x="556.33" y="1020.8" width="4.2332" height="5.421"/>
 <rect transform="matrix(.87795 -.47876 .85987 .51052 0 0)" x="581.73" y="1020.8" width="4.2332" height="5.421"/>
 <rect transform="matrix(.87795 -.47876 .85987 .51052 0 0)" x="607.13" y="1020.8" width="4.2332" height="5.421"/>
 <rect transform="matrix(.87795 -.47876 .85987 .51052 0 0)" x="611.37" y="1020.8" width="4.2332" height="5.421"/>
 <rect transform="matrix(.87795 -.47876 .85987 .51052 0 0)" x="628.3" y="1020.8" width="4.2332" height="5.421"/>
 <rect transform="matrix(.87795 -.47876 .85987 .51052 0 0)" x="632.53" y="1020.8" width="4.2332" height="5.421"/>
 <rect transform="matrix(.87795 -.47876 .85987 .51052 0 0)" x="636.77" y="1020.8" width="4.2332" height="5.421"/>
 <rect transform="matrix(.87795 -.47876 .85987 .51052 0 0)" x="556.33" y="1026.2" width="4.2332" height="5.421"/>
 <rect transform="matrix(.87795 -.47876 .85987 .51052 0 0)" x="564.8" y="1026.2" width="4.2332" height="5.421"/>
 <rect transform="matrix(.87795 -.47876 .85987 .51052 0 0)" x="569.03" y="1026.2" width="4.2332" height="5.421"/>
 <rect transform="matrix(.87795 -.47876 .85987 .51052 0 0)" x="573.27" y="1026.2" width="4.2332" height="5.421"/>
 <rect transform="matrix(.87795 -.47876 .85987 .51052 0 0)" x="581.73" y="1026.2" width="4.2332" height="5.421"/>
 <rect transform="matrix(.87795 -.47876 .85987 .51052 0 0)" x="590.2" y="1026.2" width="4.2332" height="5.421"/>
 <rect transform="matrix(.87795 -.47876 .85987 .51052 0 0)" x="594.43" y="1026.2" width="4.2332" height="5.421"/>
 <rect transform="matrix(.87795 -.47876 .85987 .51052 0 0)" x="611.37" y="1026.2" width="4.2332" height="5.421"/>
 <rect transform="matrix(.87795 -.47876 .85987 .51052 0 0)" x="615.6" y="1026.2" width="4.2332" height="5.421"/>
 <rect transform="matrix(.87795 -.47876 .85987 .51052 0 0)" x="636.77" y="1026.2" width="4.2332" height="5.421"/>
 <rect transform="matrix(.87795 -.47876 .85987 .51052 0 0)" x="641" y="1026.2" width="4.2332" height="5.421"/>
 <rect transform="matrix(.87795 -.47876 .85987 .51052 0 0)" x="556.33" y="1031.6" width="4.2332" height="5.421"/>
 <rect transform="matrix(.87795 -.47876 .85987 .51052 0 0)" x="564.8" y="1031.6" width="4.2332" height="5.421"/>
 <rect transform="matrix(.87795 -.47876 .85987 .51052 0 0)" x="569.03" y="1031.6" width="4.2332" height="5.421"/>
 <rect transform="matrix(.87795 -.47876 .85987 .51052 0 0)" x="573.27" y="1031.6" width="4.2332" height="5.421"/>
 <rect transform="matrix(.87795 -.47876 .85987 .51052 0 0)" x="581.73" y="1031.6" width="4.2332" height="5.421"/>
 <rect transform="matrix(.87795 -.47876 .85987 .51052 0 0)" x="590.2" y="1031.6" width="4.2332" height="5.421"/>
 <rect transform="matrix(.87795 -.47876 .85987 .51052 0 0)" x="598.67" y="1031.6" width="4.2332" height="5.421"/>
 <rect transform="matrix(.87795 -.47876 .85987 .51052 0 0)" x="611.37" y="1031.6" width="4.2332" height="5.421"/>
 <rect transform="matrix(.87795 -.47876 .85987 .51052 0 0)" x="619.83" y="1031.6" width="4.2332" height="5.421"/>
 <rect transform="matrix(.87795 -.47876 .85987 .51052 0 0)" x="624.07" y="1031.6" width="4.2332" height="5.421"/>
 <rect transform="matrix(.87795 -.47876 .85987 .51052 0 0)" x="556.33" y="1037" width="4.2332" height="5.421"/>
 <rect transform="matrix(.87795 -.47876 .85987 .51052 0 0)" x="564.8" y="1037" width="4.2332" height="5.421"/>
 <rect transform="matrix(.87795 -.47876 .85987 .51052 0 0)" x="569.03" y="1037" width="4.2332" height="5.421"/>
 <rect transform="matrix(.87795 -.47876 .85987 .51052 0 0)" x="573.27" y="1037" width="4.2332" height="5.421"/>
 <rect transform="matrix(.87795 -.47876 .85987 .51052 0 0)" x="581.73" y="1037" width="4.2332" height="5.421"/>
 <rect transform="matrix(.87795 -.47876 .85987 .51052 0 0)" x="590.2" y="1037" width="4.2332" height="5.421"/>
 <rect transform="matrix(.87795 -.47876 .85987 .51052 0 0)" x="594.43" y="1037" width="4.2332" height="5.421"/>
 <rect transform="matrix(.87795 -.47876 .85987 .51052 0 0)" x="598.67" y="1037" width="4.2332" height="5.421"/>
 <rect transform="matrix(.87795 -.47876 .85987 .51052 0 0)" x="602.9" y="1037" width="4.2332" height="5.421"/>
 <rect transform="matrix(.87795 -.47876 .85987 .51052 0 0)" x="607.13" y="1037" width="4.2332" height="5.421"/>
 <rect transform="matrix(.87795 -.47876 .85987 .51052 0 0)" x="611.37" y="1037" width="4.2332" height="5.421"/>
 <rect transform="matrix(.87795 -.47876 .85987 .51052 0 0)" x="632.53" y="1037" width="4.2332" height="5.421"/>
 <rect transform="matrix(.87795 -.47876 .85987 .51052 0 0)" x="556.33" y="1042.5" width="4.2332" height="5.421"/>
 <rect transform="matrix(.87795 -.47876 .85987 .51052 0 0)" x="581.73" y="1042.5" width="4.2332" height="5.421"/>
 <rect transform="matrix(.87795 -.47876 .85987 .51052 0 0)" x="590.2" y="1042.5" width="4.2332" height="5.421"/>
 <rect transform="matrix(.87795 -.47876 .85987 .51052 0 0)" x="594.43" y="1042.5" width="4.2332" height="5.421"/>
 <rect transform="matrix(.87795 -.47876 .85987 .51052 0 0)" x="602.9" y="1042.5" width="4.2332" height="5.421"/>
 <rect transform="matrix(.87795 -.47876 .85987 .51052 0 0)" x="611.37" y="1042.5" width="4.2332" height="5.421"/>
 <rect transform="matrix(.87795 -.47876 .85987 .51052 0 0)" x="628.3" y="1042.5" width="4.2332" height="5.421"/>
 <rect transform="matrix(.87795 -.47876 .85987 .51052 0 0)" x="632.53" y="1042.5" width="4.2332" height="5.421"/>
 <rect transform="matrix(.87795 -.47876 .85987 .51052 0 0)" x="556.33" y="1047.9" width="4.2332" height="5.421"/>
 <rect transform="matrix(.87795 -.47876 .85987 .51052 0 0)" x="560.57" y="1047.9" width="4.2332" height="5.421"/>
 <rect transform="matrix(.87795 -.47876 .85987 .51052 0 0)" x="564.8" y="1047.9" width="4.2332" height="5.421"/>
 <rect transform="matrix(.87795 -.47876 .85987 .51052 0 0)" x="569.03" y="1047.9" width="4.2332" height="5.421"/>
 <rect transform="matrix(.87795 -.47876 .85987 .51052 0 0)" x="573.27" y="1047.9" width="4.2332" height="5.421"/>
 <rect transform="matrix(.87795 -.47876 .85987 .51052 0 0)" x="577.5" y="1047.9" width="4.2332" height="5.421"/>
 <rect transform="matrix(.87795 -.47876 .85987 .51052 0 0)" x="581.73" y="1047.9" width="4.2332" height="5.421"/>
 <rect transform="matrix(.87795 -.47876 .85987 .51052 0 0)" x="590.2" y="1047.9" width="4.2332" height="5.421"/>
 <rect transform="matrix(.87795 -.47876 .85987 .51052 0 0)" x="594.43" y="1047.9" width="4.2332" height="5.421"/>
 <rect transform="matrix(.87795 -.47876 .85987 .51052 0 0)" x="598.67" y="1047.9" width="4.2332" height="5.421"/>
 <rect transform="matrix(.87795 -.47876 .85987 .51052 0 0)" x="607.13" y="1047.9" width="4.2332" height="5.421"/>
 <rect transform="matrix(.87795 -.47876 .85987 .51052 0 0)" x="615.6" y="1047.9" width="4.2332" height="5.421"/>
 <rect transform="matrix(.87795 -.47876 .85987 .51052 0 0)" x="619.83" y="1047.9" width="4.2332" height="5.421"/>
 <rect transform="matrix(.87795 -.47876 .85987 .51052 0 0)" x="636.77" y="1047.9" width="4.2332" height="5.421"/>
 <path d="m1122.6 309.42 338.05 195.17" fill="none" stroke="#000" stroke-width="1px"/>
 <path d="m1.5185 738.43 221.77 128.04" fill="none" opacity=".25" stroke="#000" stroke-linecap="round" stroke-linejoin="round" stroke-width="3"/>
 <path d="m419.24 979.6 221.77 128.05" fill="none" opacity=".25" stroke="#000" stroke-linecap="round" stroke-linejoin="round" stroke-width="3"/>
</svg>